<svg width="110" height="110" viewBox="0 0 110 110" fill="none" xmlns="http://www.w3.org/2000/svg">
<g clip-path="url(#clip0)">
<path d="M12.8334 55.9166C11.8209 55.9166 11.0001 56.7375 11.0001 57.75V87.0833C11.0001 88.0958 11.8209 88.9167 12.8334 88.9167C13.8458 88.9167 14.6667 88.0958 14.6667 87.0833V57.75C14.6667 56.7375 13.8458 55.9166 12.8334 55.9166Z" fill="white"/>
<path d="M26.4732 41.2499C27.4857 41.2499 28.3066 40.429 28.3066 39.4166C28.3075 39.2161 28.2699 39.0164 28.1965 38.8303C27.978 38.1231 27.3568 37.6173 26.62 37.5466C22.1719 37.1303 18.6717 33.5684 18.3333 29.1131C18.3432 29.0468 18.3432 28.9788 18.3333 28.9116V28.7102C18.3244 28.6126 18.3244 28.5142 18.3333 28.4166V19.2499H25.8502C26.8626 19.2499 27.6835 18.4291 27.6835 17.4166C27.6835 16.4042 26.8626 15.5833 25.8502 15.5833H16.5C15.4875 15.5833 14.6667 16.4042 14.6667 17.4166V25.5932C12.3392 23.5119 11.0063 20.539 11 17.4166V6.4166H33C36.5959 6.4184 39.9645 8.17743 42.0199 11.1279C42.6178 11.8996 43.7144 12.067 44.5156 11.5102C45.3168 10.9534 45.5415 9.86753 45.0268 9.03859C42.2866 5.10158 37.7955 2.75352 33 2.74994H11C8.9751 2.74994 7.33333 4.3917 7.33333 6.4166V17.4166C7.30827 22.7259 10.1558 27.6351 14.7768 30.2499C15.1644 33.0295 16.4526 35.6058 18.4434 37.5833H12.8333C5.74528 37.5833 0 43.3285 0 50.4166V87.0833C0 88.0957 0.820882 88.9166 1.83333 88.9166C2.84578 88.9166 3.66667 88.0957 3.66667 87.0833V50.4166C3.66667 45.3543 7.77108 41.2499 12.8333 41.2499H26.4732Z" fill="white"/>
<path d="M25.667 53.6427L24.3466 48.5831H30.3237C31.3362 48.5831 32.1571 47.7622 32.1571 46.7498C32.1571 45.7373 31.3362 44.9164 30.3237 44.9164H22.0003C21.4364 44.9138 20.9019 45.1707 20.5519 45.6129C20.2046 46.0596 20.0829 46.6415 20.2216 47.1902L22.0549 54.5236C22.2984 55.5208 23.3037 56.1322 24.301 55.8887C25.2982 55.6461 25.9096 54.6408 25.667 53.6427Z" fill="white"/>
<path d="M97.1666 55.9166C96.1541 55.9166 95.3332 56.7375 95.3332 57.75V87.0833C95.3332 88.0958 96.1541 88.9167 97.1666 88.9167C98.179 88.9167 98.9999 88.0958 98.9999 87.0833V57.75C98.9999 56.7375 98.179 55.9166 97.1666 55.9166Z" fill="white"/>
<path d="M102.667 38.8303V21.0833C102.667 10.9579 94.4589 2.74994 84.3335 2.74994H80.6669C75.2618 2.75979 70.1359 5.15529 66.66 9.29462C66.1828 9.78876 66.0217 10.5076 66.2419 11.1575C66.4621 11.8074 67.027 12.28 67.7055 12.3821C68.385 12.4841 69.0635 12.1986 69.4655 11.6418C72.2468 8.33498 76.3458 6.42287 80.6669 6.4166H84.3335C92.434 6.4166 99.0002 12.9828 99.0002 21.0833V37.7113C98.5848 37.7113 98.1632 37.6746 97.7353 37.6012H91.5022C93.963 35.1797 95.3434 31.8693 95.3335 28.4166V17.4166C95.3335 16.4042 94.5127 15.5833 93.5002 15.5833H79.7135C78.7011 15.5833 77.8802 16.4042 77.8802 17.4166C77.8802 18.4291 78.7011 19.2499 79.7135 19.2499H91.6669V28.4166C91.6884 33.1548 88.096 37.1285 83.3802 37.5833C82.6434 37.654 82.0222 38.1598 81.8038 38.867C81.7303 39.0532 81.6928 39.2528 81.6936 39.4533C81.6936 40.4658 82.5145 41.2866 83.527 41.2866H88.5498L81.5835 53.8084C81.0921 54.6938 81.4126 55.811 82.2988 56.3015C82.5727 56.4573 82.8816 56.5387 83.1967 56.5396C83.8582 56.5387 84.4678 56.1816 84.7919 55.6051L92.7483 41.2499H97.5706C98.4774 41.2857 99.3735 41.4585 100.228 41.7629H100.375C103.981 43.1101 106.361 46.5673 106.334 50.4166V87.0833C106.334 88.0957 107.154 88.9166 108.167 88.9166C109.179 88.9166 110 88.0957 110 87.0833V50.4166C109.997 45.4627 107.143 40.9527 102.667 38.8303Z" fill="white"/>
<path d="M71.5 55.9167H65.3582C68.2156 53.6107 70.2226 50.4167 71.0596 46.8413C75.8372 44.2981 78.8253 39.329 78.8334 33.9167V30.25C78.8334 22.1495 72.2672 15.5834 64.1667 15.5834H34.8334C32.8085 15.5834 31.1667 17.2251 31.1667 19.25V33.9167C31.1748 39.329 34.1629 44.2981 38.9405 46.8413C39.7775 50.4167 41.7845 53.6107 44.6419 55.9167H38.5001C31.412 55.9167 25.6667 61.662 25.6667 68.75V105.417C25.6667 106.429 26.4876 107.25 27.5001 107.25C28.5125 107.25 29.3334 106.429 29.3334 105.417V68.75C29.3334 63.6878 33.4378 59.5834 38.5001 59.5834H71.5C76.5623 59.5834 80.6667 63.6878 80.6667 68.75V105.417C80.6667 106.429 81.4876 107.25 82.5 107.25C83.5125 107.25 84.3334 106.429 84.3334 105.417V68.75C84.3334 61.662 78.5881 55.9167 71.5 55.9167ZM34.8334 33.9167V19.25H64.1667C70.2414 19.25 75.1667 24.1753 75.1667 30.25V33.9167C75.1604 37.0391 73.8275 40.012 71.5 42.0933V28.4167C71.5 27.4042 70.6792 26.5834 69.6667 26.5834H40.3334C39.3209 26.5834 38.5001 27.4042 38.5001 28.4167V42.0933C36.1726 40.012 34.8397 37.0391 34.8334 33.9167ZM42.3869 45.503C42.3968 45.4368 42.3968 45.3688 42.3869 45.3016C42.2723 44.6589 42.1989 44.0099 42.1667 43.3582V30.25H67.8334V43.3582C67.8065 44.0099 67.7394 44.6589 67.632 45.3016C67.6212 45.3688 67.6212 45.4368 67.632 45.503C66.4933 51.5724 61.1938 55.9704 55.018 55.9704C48.843 55.9704 43.5435 51.5724 42.4048 45.503H42.3869Z" fill="white"/>
<path d="M60.9405 63.25C59.9585 63.0074 58.9657 63.6062 58.7214 64.5883L57.2371 70.5833H52.763L51.3334 64.6429C51.1974 63.9849 50.7122 63.4541 50.0694 63.2598C49.4258 63.0647 48.7285 63.2374 48.2495 63.7101C47.7715 64.1818 47.5907 64.8774 47.7769 65.5237L49.6102 72.5634L47.6668 93.115C47.6166 93.6987 47.8485 94.2707 48.2898 94.6548L53.7898 99.4583C54.4818 100.066 55.5184 100.066 56.2104 99.4583L61.7104 94.6548C62.1517 94.2707 62.3835 93.6987 62.3334 93.115L60.5001 72.5634L62.3334 65.5237C62.465 65.0358 62.3907 64.5166 62.1266 64.0861C61.8634 63.6564 61.4338 63.3538 60.9405 63.25ZM55.0001 95.6448L51.3334 92.5833L52.9465 74.25H56.9068L58.6668 92.5833L55.0001 95.6448Z" fill="white"/>
<path d="M38.5001 74.25C37.4877 74.25 36.6668 75.0709 36.6668 76.0834V105.417C36.6668 106.429 37.4877 107.25 38.5001 107.25C39.5126 107.25 40.3335 106.429 40.3335 105.417V76.0834C40.3335 75.0709 39.5126 74.25 38.5001 74.25Z" fill="white"/>
<path d="M71.5001 74.25C70.4877 74.25 69.6668 75.0709 69.6668 76.0834V105.417C69.6668 106.429 70.4877 107.25 71.5001 107.25C72.5126 107.25 73.3335 106.429 73.3335 105.417V76.0834C73.3335 75.0709 72.5126 74.25 71.5001 74.25Z" fill="white"/>
</g>
<defs>
<clipPath id="clip0">
<rect width="110" height="110" fill="white"/>
</clipPath>
</defs>
</svg>
