<svg width="110" height="110" viewBox="0 0 110 110" fill="none" xmlns="http://www.w3.org/2000/svg">
<path d="M6.37162 55.5031C6.13125 55.2628 5.82499 55.0991 5.49158 55.0327C5.15816 54.9664 4.81257 55.0004 4.4985 55.1305C4.18444 55.2606 3.916 55.4809 3.72714 55.7636C3.53828 56.0463 3.43749 56.3786 3.4375 56.7185V104.844C3.4375 105.299 3.61858 105.737 3.94091 106.059C4.26324 106.381 4.70041 106.562 5.15625 106.562H53.2812C53.6212 106.562 53.9535 106.461 54.2362 106.273C54.5188 106.084 54.7391 105.815 54.8692 105.501C54.9993 105.187 55.0333 104.842 54.967 104.508C54.9007 104.175 54.737 103.869 54.4966 103.628L6.37162 55.5031ZM6.875 103.125V60.8678L49.132 103.125H6.875Z" fill="white"/>
<path d="M15.4687 96.2497H29.2187C29.5587 96.2498 29.891 96.149 30.1737 95.9601C30.4563 95.7712 30.6766 95.5028 30.8067 95.1887C30.9368 94.8747 30.9708 94.5291 30.9045 94.1957C30.8382 93.8623 30.6745 93.556 30.4341 93.3156L16.6841 79.5656C16.4437 79.3252 16.1375 79.1615 15.8041 79.0952C15.4707 79.0289 15.1251 79.0629 14.811 79.193C14.4969 79.3231 14.2285 79.5434 14.0396 79.8261C13.8508 80.1087 13.75 80.441 13.75 80.781V94.531C13.75 94.9868 13.9311 95.424 14.2534 95.7463C14.5757 96.0687 15.0129 96.2497 15.4687 96.2497ZM17.1875 84.9305L25.0695 92.8122H17.1875V84.9305Z" fill="white"/>
<path d="M22.3438 10.3125H25.7812V13.75H22.3438V10.3125Z" fill="white"/>
<path d="M29.2188 10.3125H32.6562V13.75H29.2188V10.3125Z" fill="white"/>
<path d="M36.0938 10.3125H39.5312V13.75H36.0938V10.3125Z" fill="white"/>
<path d="M38.8343 34.5254C38.5287 34.6575 38.2688 34.8767 38.0871 35.1556C37.9054 35.4346 37.8099 35.7609 37.8125 36.0938V55C37.8125 55.3325 37.9089 55.6579 38.0901 55.9367C38.2713 56.2155 38.5294 56.4357 38.8332 56.5707L54.302 63.4457C54.5218 63.5437 54.7598 63.5942 55.0004 63.594C55.241 63.5938 55.4789 63.5428 55.6985 63.4445V63.4457L71.1672 56.5707C71.471 56.4356 71.729 56.2154 71.9101 55.9366C72.0912 55.6578 72.1876 55.3325 72.1875 55V36.0938C72.1902 35.7609 72.0947 35.4346 71.913 35.1556C71.7312 34.8767 71.4713 34.6575 71.1657 34.5254V34.5231L55.697 27.6481C55.4771 27.5505 55.2393 27.5 54.9987 27.5C54.7582 27.5 54.5203 27.5505 54.3005 27.6481L38.8317 34.5231L38.8343 34.5254ZM53.2813 59.2303L41.25 53.8828V38.7385L53.2813 44.086V59.2303ZM68.75 53.8828L56.7188 59.2303V44.086L68.75 38.7387V53.8828ZM55 31.0995L66.2364 36.0938L55 41.0878L43.7637 36.0938L55 31.0995Z" fill="white"/>
<path d="M53.2812 68.75H56.7188V77.3438H53.2812V68.75Z" fill="white"/>
<path d="M53.2812 15.4688H56.7188V24.0625H53.2812V15.4688Z" fill="white"/>
<path d="M25.0307 32.4991L26.5123 29.3985L33.7067 32.8362L32.2251 35.9368L25.0307 32.4991Z" fill="white"/>
<path d="M76.2535 32.8111L83.448 29.3734L84.9295 32.474L77.7351 35.9117L76.2535 32.8111Z" fill="white"/>
<path d="M25.0305 60.3053L32.2249 56.8676L33.7065 59.9682L26.5121 63.4059L25.0305 60.3053Z" fill="white"/>
<path d="M104.844 82.5H94.5313V55.712L104.635 45.6079C105.246 44.9969 105.731 44.2715 106.062 43.4731C106.392 42.6748 106.563 41.8192 106.563 40.9551C106.563 40.0909 106.392 39.2353 106.062 38.437C105.731 37.6386 105.246 36.9133 104.635 36.3023C104.024 35.6912 103.299 35.2066 102.501 34.8759C101.702 34.5452 100.847 34.375 99.9824 34.375C99.1183 34.3751 98.2627 34.5453 97.4643 34.876C96.666 35.2066 95.9406 35.6913 95.3296 36.3024L94.5313 37.1007V22.3438C94.5313 22.118 94.4868 21.8945 94.4005 21.686C94.3141 21.4775 94.1875 21.288 94.0279 21.1284L76.8404 3.94088C76.6808 3.78128 76.4913 3.65468 76.2828 3.56831C76.0742 3.48194 75.8507 3.43749 75.625 3.4375H22.3438C20.521 3.43955 18.7735 4.16453 17.4847 5.4534C16.1958 6.74227 15.4708 8.48977 15.4688 10.3125V60.1562H18.9063V10.3125C18.9073 9.40115 19.2698 8.52744 19.9143 7.88301C20.5587 7.23859 21.4324 6.87608 22.3438 6.875H73.9063V17.1875C73.9083 19.0102 74.6333 20.7577 75.9222 22.0466C77.211 23.3355 78.9585 24.0605 80.7813 24.0625H91.0938V40.538L64.0971 67.5346C63.8573 67.7746 63.6937 68.0802 63.6271 68.4129L61.9083 77.0067C61.8528 77.2841 61.8666 77.571 61.9486 77.8419C62.0306 78.1127 62.1782 78.3591 62.3783 78.5592C62.5784 78.7593 62.8248 78.9069 63.0956 78.9889C63.3665 79.0709 63.6534 79.0847 63.9308 79.0292L72.5246 77.3104C72.8573 77.2439 73.1629 77.0803 73.4029 76.8404L91.0938 59.1495V82.5H56.7188C56.2629 82.5 55.8257 82.6811 55.5034 83.0034C55.1811 83.3257 55 83.7629 55 84.2188V89.375H46.4063V92.8125H55V97.9688C55 98.4246 55.1811 98.8618 55.5034 99.1841C55.8257 99.5064 56.2629 99.6875 56.7188 99.6875H104.844C105.3 99.6875 105.737 99.5064 106.059 99.1841C106.381 98.8618 106.563 98.4246 106.563 97.9688V84.2188C106.563 83.7629 106.381 83.3257 106.059 83.0034C105.737 82.6811 105.3 82.5 104.844 82.5ZM77.3438 17.1875V9.30574L88.663 20.625H80.7813C79.8699 20.6239 78.9962 20.2614 78.3518 19.617C77.7073 18.9726 77.3448 18.0989 77.3438 17.1875ZM67.7432 68.75L94.5313 41.962L98.9755 46.4062L72.1875 73.1943L67.7432 68.75ZM99.9825 37.8125C100.604 37.8125 101.212 37.9969 101.728 38.3422C102.245 38.6876 102.648 39.1784 102.886 39.7526C103.124 40.3268 103.186 40.9587 103.065 41.5683C102.943 42.1779 102.644 42.7378 102.205 43.1774L101.406 43.9755L96.962 39.5312L97.7604 38.7329C98.0515 38.4401 98.3978 38.2081 98.7792 38.0501C99.1607 37.8921 99.5696 37.8113 99.9825 37.8125ZM66.368 72.2363L68.7012 74.5695L65.7852 75.1523L66.368 72.2363ZM103.125 96.25H58.4375V85.9375H61.875V89.375H65.3125V85.9375H68.75V89.375H72.1875V85.9375H75.625V89.375H79.0625V85.9375H82.5V89.375H85.9375V85.9375H89.375V89.375H92.8125V85.9375H96.25V89.375H99.6875V85.9375H103.125V96.25Z" fill="white"/>
</svg>
