<svg width="140" height="140" viewBox="0 0 140 140" fill="none" xmlns="http://www.w3.org/2000/svg">
<path d="M134.505 4.653C133.813 4.26634 132.966 4.2837 132.291 4.69973L124.688 9.37961V6.56252C124.688 5.35449 123.708 4.37502 122.5 4.37502H91.875C91.2947 4.37502 90.7385 4.60547 90.3281 5.01563L77.2031 18.1406C76.7929 18.5511 76.5625 19.1073 76.5625 19.6875V21.875H35.6191L7.70885 4.69946C7.03381 4.28397 6.18679 4.26634 5.49545 4.653C4.80358 5.03939 4.375 5.76998 4.375 6.56252V102.813C4.375 104.021 5.35446 105 6.5625 105H48.125V115.938C48.125 116.518 48.3554 117.074 48.7656 117.484L66.2656 134.984C66.676 135.395 67.2322 135.625 67.8125 135.625H98.4375C99.6455 135.625 100.625 134.646 100.625 133.438V115.938C100.625 114.729 99.6455 113.75 98.4375 113.75H90.5935L81.8437 105H133.438C134.646 105 135.625 104.021 135.625 102.813V6.56252C135.625 5.76998 135.196 5.03939 134.505 4.653ZM131.25 10.4777V91.875H107.188V33.7187L112.469 28.4375H122.5C123.708 28.4375 124.688 27.4581 124.688 26.25V14.5168L131.25 10.4777ZM80.9375 20.5936L92.781 8.75002H120.312V24.0625H111.562C110.982 24.0625 110.426 24.293 110.016 24.7031L100.625 34.094L97.156 30.625L102.172 25.6094C103.026 24.7549 103.026 23.3701 102.172 22.5156L95.6094 15.9531C94.7549 15.0992 93.3701 15.0992 92.5156 15.9531L85.9531 22.5156C85.5429 22.9261 85.3125 23.4823 85.3125 24.0625V30.625H80.9375V20.5936ZM85.3125 74.375H76.5625V65.625H85.3125V74.375ZM63.4375 74.375H59.0625V65.625H63.4375V74.375ZM59.0625 61.25H45.9375V56.875H59.0625V61.25ZM50.3125 65.625H54.6875V83.125H50.3125V65.625ZM89.6875 26.25H95.3438L92.5156 29.0781C92.0885 29.5054 91.8749 30.0652 91.8749 30.625H89.6875V26.25ZM92.781 21.875L94.0625 20.5936L95.344 21.875H92.781ZM63.4375 61.25V56.875H94.0625V61.25H63.4375ZM94.0625 52.5H89.6875V41.5625V35H94.0625V52.5ZM85.3125 39.375H76.5625V35H78.75H85.3125V39.375ZM85.3125 43.75V52.5H76.5625V43.75H85.3125ZM72.1875 52.5H67.8125V35H72.1875V52.5ZM67.8125 65.625H72.1875V83.125H67.8125V65.625ZM89.6875 65.625H94.0625V83.125H89.6875V65.625ZM76.5625 30.625H65.625C64.417 30.625 63.4375 31.6045 63.4375 32.8125V52.5H43.75C42.542 52.5 41.5625 53.4795 41.5625 54.6875V63.4375C41.5625 64.6456 42.542 65.625 43.75 65.625H45.9375V85.3125C45.9375 86.5206 46.917 87.5 48.125 87.5H56.875C58.083 87.5 59.0625 86.5206 59.0625 85.3125V78.75H63.4375V85.3125C63.4375 86.5206 64.417 87.5 65.625 87.5H74.375C75.583 87.5 76.5625 86.5206 76.5625 85.3125V78.75H85.3125V85.3125C85.3125 86.5206 86.292 87.5 87.5 87.5H96.25C97.458 87.5 98.4375 86.5206 98.4375 85.3125V38.0938L99.0781 38.7344C99.5053 39.1614 100.065 39.375 100.625 39.375C101.185 39.375 101.745 39.1614 102.172 38.7344L102.812 38.0938V91.875H37.1875V26.25H76.5625V30.625ZM8.75 10.4772L32.8125 25.285V91.875H8.75V10.4772ZM89.6875 118.125H96.25V131.25H68.7185L52.5 115.032V105H56.875V111.563C56.875 112.143 57.1054 112.699 57.5156 113.109L68.4531 124.047C69.3076 124.901 70.6924 124.901 71.5469 124.047L78.1094 117.484C78.9636 116.63 78.9636 115.245 78.1094 114.391L73.0935 109.375L76.5625 105.906L88.1406 117.484C88.551 117.895 89.1072 118.125 89.6875 118.125ZM68.4531 110.922L73.469 115.938L70 119.407L61.25 110.657V105H71.2812L68.4531 107.828C67.5989 108.683 67.5989 110.067 68.4531 110.922ZM131.25 100.625H8.75V96.25H131.25V100.625Z" fill="#E31E24"/>
</svg>
