<svg width="31" height="23" viewBox="0 0 31 23" fill="none" xmlns="http://www.w3.org/2000/svg">
<path fill-rule="evenodd" clip-rule="evenodd" d="M1.47606 18.5475V4.45228C1.47606 3.5177 1.90232 2.62141 2.66106 1.96057C3.41981 1.29972 4.44889 0.928467 5.52191 0.928467H25.7512C26.8242 0.928467 27.8533 1.29972 28.612 1.96057C29.3708 2.62141 29.797 3.5177 29.797 4.45228V18.5475C29.797 19.4821 29.3708 20.3784 28.612 21.0392C27.8533 21.7001 26.8242 22.0713 25.7512 22.0713H5.52191C4.44889 22.0713 3.41981 21.7001 2.66106 21.0392C1.90232 20.3784 1.47606 19.4821 1.47606 18.5475Z" stroke="#4F4F4F" stroke-linecap="round" stroke-linejoin="round"/>
<path d="M5.52193 7.09521L15.6366 12.3809L25.7512 7.09521" stroke="#4F4F4F" stroke-linecap="round" stroke-linejoin="round"/>
</svg>
