<svg width="140" height="140" viewBox="0 0 140 140" fill="none" xmlns="http://www.w3.org/2000/svg">
<path d="M16.2933 16.3254V137.598C16.2933 138.886 17.3375 139.93 18.6257 139.93H107.248C108.535 139.93 109.579 138.886 109.579 137.598V39.6477C109.579 39.5958 109.554 39.5516 109.55 39.5007C109.538 39.2961 109.498 39.0943 109.431 38.9013C109.405 38.8263 109.386 38.7543 109.354 38.6813C109.24 38.4277 109.083 38.1962 108.887 37.9983L85.5655 14.677C85.3676 14.48 85.1351 14.3225 84.8796 14.2101C84.8095 14.1803 84.7384 14.1553 84.6654 14.1332C84.4704 14.066 84.2677 14.0257 84.0612 14.0122C84.0218 14.0189 83.9757 13.994 83.9267 13.994H18.6257C17.3375 13.994 16.2933 15.0372 16.2933 16.3254ZM101.618 37.3153H86.2581V21.9557L101.618 37.3153ZM20.9572 18.6578H81.5942V39.6477C81.5942 40.9349 82.6385 41.9791 83.9257 41.9791H104.916V135.266H20.9572V18.6578Z" fill="#E31E24"/>
<path d="M114.243 121.272V125.936H121.24C122.528 125.936 123.572 124.893 123.572 123.605V2.33242C123.572 1.04421 122.528 0 121.24 0H32.6175C31.3293 0 30.2851 1.04421 30.2851 2.33242V9.32871H34.9499V4.66387H118.907V121.272H114.243Z" fill="#E31E24"/>
<path d="M34.9504 46.6434H90.9217V51.3073H34.9504V46.6434Z" fill="#E31E24"/>
<path d="M34.9504 32.6501H53.6079V37.3149H34.9504V32.6501Z" fill="#E31E24"/>
<path d="M34.9504 60.6364H72.2653V65.3012H34.9504V60.6364Z" fill="#E31E24"/>
<path d="M76.9285 60.6364H90.921V65.3012H76.9285V60.6364Z" fill="#E31E24"/>
<path d="M34.9504 74.6288H90.9217V79.2936H34.9504V74.6288Z" fill="#E31E24"/>
<path d="M34.9504 102.615H90.9217V107.28H34.9504V102.615Z" fill="#E31E24"/>
<path d="M55.9386 88.622H90.921V93.2859H55.9386V88.622Z" fill="#E31E24"/>
<path d="M34.9504 88.622H51.2754V93.2859H34.9504V88.622Z" fill="#E31E24"/>
<path d="M34.9504 116.608H44.2791V121.272H34.9504V116.608Z" fill="#E31E24"/>
<path d="M48.9434 116.608H90.9221V121.272H48.9434V116.608Z" fill="#E31E24"/>
</svg>
