<svg width="51" height="48" viewBox="0 0 51 48" fill="none" xmlns="http://www.w3.org/2000/svg">
<path d="M33.1501 24C33.1501 25.9095 32.3441 27.7409 30.9094 29.0911C29.4748 30.4414 27.529 31.2 25.5001 31.2C23.4712 31.2 21.5254 30.4414 20.0907 29.0911C18.6561 27.7409 17.8501 25.9095 17.8501 24C17.8501 23.5896 17.896 23.1888 17.975 22.8H15.3001V32.3928C15.3001 33.06 15.8738 33.6 16.5827 33.6H34.42C34.7597 33.5993 35.0853 33.4719 35.3253 33.2455C35.5653 33.0192 35.7001 32.7125 35.7001 32.3928V22.8H33.0251C33.1042 23.1888 33.1501 23.5896 33.1501 24ZM25.5001 28.8C26.17 28.7998 26.8333 28.6755 27.4522 28.434C28.071 28.1926 28.6333 27.8388 29.1069 27.3929C29.5804 26.9469 29.956 26.4176 30.2123 25.835C30.4685 25.2524 30.6002 24.6281 30.6001 23.9976C30.5999 23.3671 30.4678 22.7428 30.2113 22.1603C29.9548 21.5779 29.5789 21.0487 29.105 20.6029C28.6312 20.1572 28.0688 19.8037 27.4498 19.5626C26.8308 19.3214 26.1674 19.1974 25.4975 19.1976C24.1446 19.1979 22.8472 19.704 21.8908 20.6046C20.9343 21.5053 20.3972 22.7266 20.3975 24C20.3979 25.2733 20.9356 26.4944 21.8926 27.3946C22.8495 28.2947 24.1471 28.8003 25.5001 28.8ZM31.6201 18.96H34.6775C34.8807 18.96 35.0755 18.8842 35.2194 18.7492C35.3632 18.6143 35.4444 18.4311 35.4451 18.24V15.3624C35.4451 15.1708 35.3642 14.987 35.2203 14.8515C35.0763 14.7161 34.8811 14.64 34.6775 14.64H31.6201C31.4165 14.64 31.2213 14.7161 31.0773 14.8515C30.9334 14.987 30.8525 15.1708 30.8525 15.3624V18.24C30.8551 18.636 31.1993 18.96 31.6201 18.96ZM25.5001 0.959961C19.0076 0.959961 12.781 3.38738 8.19011 7.70822C3.59922 12.0291 1.02008 17.8894 1.02008 24C1.02008 30.1105 3.59922 35.9709 8.19011 40.2917C12.781 44.6125 19.0076 47.04 25.5001 47.04C28.7148 47.04 31.8981 46.444 34.8682 45.2861C37.8382 44.1283 40.5369 42.4312 42.8101 40.2917C45.0832 38.1522 46.8864 35.6123 48.1166 32.817C49.3469 30.0216 49.9801 27.0256 49.9801 24C49.9801 20.9743 49.3469 17.9783 48.1166 15.1829C46.8864 12.3876 45.0832 9.84768 42.8101 7.70822C40.5369 5.56876 37.8382 3.87164 34.8682 2.71378C31.8981 1.55591 28.7148 0.959961 25.5001 0.959961ZM38.2501 33.3336C38.2501 34.8 36.9751 36 35.417 36H15.5831C14.0251 36 12.7501 34.8 12.7501 33.3336V14.6664C12.7501 13.2 14.0251 12 15.5831 12H35.417C36.9751 12 38.2501 13.2 38.2501 14.6664V33.3336Z" fill="white"/>
</svg>
