<svg width="140" height="140" viewBox="0 0 140 140" fill="none" xmlns="http://www.w3.org/2000/svg">
<g clip-path="url(#clip0)">
<path d="M59.0659 94.6094C60.5761 94.6094 61.8003 93.3852 61.8003 91.875C61.8003 90.3648 60.5761 89.1406 59.0659 89.1406C57.5558 89.1406 56.3316 90.3648 56.3316 91.875C56.3316 93.3852 57.5558 94.6094 59.0659 94.6094Z" fill="#E31E24"/>
<path d="M10.9409 37.1875V48.125C10.9409 49.6352 12.1651 50.8594 13.6753 50.8594H92.6988C94.2087 50.8594 95.4331 49.6352 95.4331 48.125V37.1875C95.4331 35.6773 94.2087 34.4531 92.6988 34.4531H13.6753C12.1651 34.4531 10.9409 35.6773 10.9409 37.1875ZM39.9253 39.9219H89.9644V45.3906H39.9253V39.9219ZM16.4097 39.9219H34.4566V45.3906H16.4097V39.9219Z" fill="#E31E24"/>
<path d="M13.6753 61.7969H92.6988C94.2087 61.7969 95.4331 60.5727 95.4331 59.0625C95.4331 57.5523 94.2087 56.3281 92.6988 56.3281H13.6753C12.1651 56.3281 10.9409 57.5523 10.9409 59.0625C10.9409 60.5727 12.1651 61.7969 13.6753 61.7969Z" fill="#E31E24"/>
<path d="M13.6753 72.7344H92.6988C94.2087 72.7344 95.4331 71.5102 95.4331 70C95.4331 68.4898 94.2087 67.2656 92.6988 67.2656H13.6753C12.1651 67.2656 10.9409 68.4898 10.9409 70C10.9409 71.5102 12.1651 72.7344 13.6753 72.7344Z" fill="#E31E24"/>
<path d="M13.6753 83.6719H59.0659C60.5761 83.6719 61.8003 82.4477 61.8003 80.9375C61.8003 79.4273 60.5761 78.2031 59.0659 78.2031H13.6753C12.1651 78.2031 10.9409 79.4273 10.9409 80.9375C10.9409 82.4477 12.1651 83.6719 13.6753 83.6719Z" fill="#E31E24"/>
<path d="M13.6753 94.6094H48.1284C49.6386 94.6094 50.8628 93.3852 50.8628 91.875C50.8628 90.3648 49.6386 89.1406 48.1284 89.1406H13.6753C12.1651 89.1406 10.9409 90.3648 10.9409 91.875C10.9409 93.3852 12.1651 94.6094 13.6753 94.6094Z" fill="#E31E24"/>
<path d="M37.1909 116.484H51.1379C52.4083 122.717 57.932 127.422 64.5347 127.422C72.0734 127.422 78.2066 121.289 78.2066 113.75C78.2066 106.211 72.0734 100.078 64.5347 100.078C57.9323 100.078 52.4083 104.783 51.1379 111.016H37.1909C35.6808 111.016 34.4566 112.24 34.4566 113.75C34.4566 115.26 35.6808 116.484 37.1909 116.484ZM64.5347 111.016H56.8019C57.9306 107.833 60.9699 105.547 64.5347 105.547C69.0579 105.547 72.7378 109.227 72.7378 113.75C72.7378 118.273 69.0579 121.953 64.5347 121.953C60.9702 121.953 57.9306 119.667 56.8019 116.484H64.5347C66.0446 116.484 67.2691 115.26 67.2691 113.75C67.2691 112.24 66.0449 111.016 64.5347 111.016Z" fill="#E31E24"/>
<path d="M92.6988 21.875C94.2087 21.875 95.4331 20.6508 95.4331 19.1406C95.4331 17.6304 94.2087 16.4062 92.6988 16.4062H87.23C85.7201 16.4062 84.4956 17.6304 84.4956 19.1406C84.4956 20.6508 85.7201 21.875 87.23 21.875H92.6988Z" fill="#E31E24"/>
<path d="M76.2925 21.875C77.8024 21.875 79.0269 20.6508 79.0269 19.1406C79.0269 17.6304 77.8024 16.4062 76.2925 16.4062H70.8238C69.3138 16.4062 68.0894 17.6304 68.0894 19.1406C68.0894 20.6508 69.3138 21.875 70.8238 21.875H76.2925Z" fill="#E31E24"/>
<path d="M59.8863 21.875C61.3965 21.875 62.6206 20.6508 62.6206 19.1406C62.6206 17.6304 61.3965 16.4062 59.8863 16.4062H54.4175C52.9073 16.4062 51.6831 17.6304 51.6831 19.1406C51.6831 20.6508 52.9073 21.875 54.4175 21.875H59.8863Z" fill="#E31E24"/>
<path d="M53.5972 140C55.1073 140 56.3316 138.776 56.3316 137.266C56.3316 135.755 55.1073 134.531 53.5972 134.531C52.087 134.531 50.8628 135.755 50.8628 137.266C50.8628 138.776 52.087 140 53.5972 140Z" fill="#E31E24"/>
<path d="M2.73782 140H41.2925C42.8027 140 44.0269 138.776 44.0269 137.266C44.0269 135.755 42.8027 134.531 41.2925 134.531H5.4722V27.3438H24.6128C26.123 27.3438 27.3472 26.1196 27.3472 24.6094V5.46875H100.902V82.7564C99.6616 84.2239 98.5033 85.5124 97.5012 86.5405L91.7043 80.7436C86.3627 75.3985 77.7117 75.396 72.3682 80.7431L68.5017 84.6095C67.434 85.6773 67.434 87.4087 68.5017 88.4764L100.902 120.876V134.531H65.9016C64.3914 134.531 63.1672 135.755 63.1672 137.266C63.1672 138.776 64.3914 140 65.9016 140H103.636C105.146 140 106.37 138.776 106.37 137.266V126.345L107.171 127.146C108.239 128.213 109.971 128.214 111.039 127.146L114.905 123.28C120.247 117.937 120.248 109.287 114.905 103.944L109.109 98.1479C114.296 93.094 125.705 84.6992 131.699 82.0884C140.114 78.4257 143.15 66.9854 135.971 59.8063C128.846 52.6777 117.456 55.5743 113.725 64.0125C112.326 67.1751 109.426 71.6218 106.371 75.7887V2.73438C106.371 1.22418 105.146 0 103.636 0H24.6128C23.8672 0 23.1663 0.314453 22.6794 0.800898L0.804347 22.6759C0.309699 23.1695 0.00344849 23.8673 0.00344849 24.6094V137.266C0.00344849 138.776 1.22763 140 2.73782 140ZM111.038 107.811C114.243 111.016 114.244 116.207 111.038 119.413L109.105 121.346L74.3024 86.543L76.2359 84.6095C79.4412 81.4026 84.6296 81.401 87.8368 84.61L111.038 107.811ZM105.779 85.45C110.518 79.7349 116.359 71.5739 118.726 66.2249C120.852 61.4187 127.606 59.1738 132.104 63.6729C136.603 68.1721 134.317 74.9848 129.516 77.0744C122.712 80.0379 110.87 88.7775 105.242 94.2807L101.368 90.4075C102.665 89.081 104.179 87.3805 105.779 85.45ZM21.8785 9.3357V21.875H9.33915L21.8785 9.3357Z" fill="#E31E24"/>
</g>
<defs>
<clipPath id="clip0">
<rect width="140" height="140" fill="white"/>
</clipPath>
</defs>
</svg>
