<svg width="26" height="25" viewBox="0 0 26 25" fill="none" xmlns="http://www.w3.org/2000/svg">
<path fill-rule="evenodd" clip-rule="evenodd" d="M6.37818 2.72665C6.28817 2.61564 6.17467 2.52428 6.04519 2.45862C5.91571 2.39296 5.77319 2.3545 5.62709 2.34579C5.48098 2.33707 5.33462 2.3583 5.19769 2.40806C5.06076 2.45783 4.93638 2.535 4.8328 2.63446L3.25655 4.15008C2.52043 4.8579 2.24905 5.86102 2.57243 6.74071C3.90611 10.3851 6.07606 13.694 8.9213 16.422C11.7583 19.1578 15.1996 21.2443 18.9898 22.5266C19.9047 22.836 20.9479 22.5766 21.684 21.8688L23.2603 20.3532C23.3636 20.2535 23.4438 20.1338 23.4954 20.0021C23.547 19.8704 23.569 19.7296 23.5597 19.5891C23.5505 19.4486 23.5104 19.3116 23.4419 19.1872C23.3735 19.0627 23.2784 18.9537 23.1628 18.8673L19.6495 16.2391C19.526 16.1468 19.3822 16.0826 19.2291 16.0515C19.0759 16.0204 18.9174 16.0231 18.7656 16.0595L15.4311 16.861C14.9856 16.9683 14.5189 16.9627 14.0764 16.845C13.6338 16.7272 13.2305 16.5013 12.9058 16.1891L9.16505 12.5907C8.84042 12.2785 8.60543 11.8907 8.48297 11.4652C8.36052 11.0396 8.35478 10.5909 8.4663 10.1626L9.29993 6.95633C9.33775 6.81029 9.34058 6.6579 9.30821 6.51066C9.27584 6.36341 9.20911 6.22516 9.11305 6.10633L6.37818 2.72665ZM3.68393 1.53133C3.95054 1.27514 4.27076 1.07639 4.62334 0.948267C4.97592 0.820142 5.35281 0.765574 5.729 0.788181C6.10519 0.810789 6.47208 0.910056 6.80533 1.0794C7.13858 1.24874 7.43057 1.48428 7.66193 1.7704L10.3936 5.14852C10.8957 5.76727 11.0728 6.57508 10.8746 7.33602L10.0409 10.5438C9.99757 10.7103 9.99978 10.8847 10.0473 11.0501C10.0949 11.2155 10.1862 11.3662 10.3123 11.4876L14.0563 15.0845C14.1825 15.2057 14.3393 15.2935 14.5113 15.3392C14.6833 15.385 14.8647 15.3871 15.0378 15.3454L18.3723 14.5438C18.7634 14.4499 19.1716 14.4427 19.566 14.5229C19.9604 14.603 20.3308 14.7683 20.6489 15.0063L24.1622 17.6329C25.4248 18.5766 25.5418 20.372 24.4108 21.4579L22.8346 22.9735C21.7084 24.0563 20.0233 24.5329 18.4519 24.0016C14.4324 22.6412 10.7829 20.4282 7.77405 17.5266C4.75584 14.6337 2.45371 11.1246 1.03843 7.25946C0.485927 5.74852 0.981552 4.12821 2.10768 3.04383L3.68393 1.52977V1.53133Z" fill="#4F4F4F"/>
</svg>
