<svg width="136" height="136" viewBox="0 0 136 136" fill="none" xmlns="http://www.w3.org/2000/svg">
<path d="M88.3047 33.806C87.0659 32.5681 85.4192 31.8854 83.6677 31.8854C81.9163 31.8854 80.2696 32.5681 79.0317 33.806C77.7928 35.0449 77.1101 36.6915 77.1101 38.443C77.1101 40.1945 77.7928 41.8411 79.0307 43.079L90.2015 54.2498C91.4393 55.4876 93.087 56.1703 94.8385 56.1703C96.59 56.1703 98.2356 55.4876 99.4745 54.2498L123.341 30.3829C124.58 29.144 125.262 27.4974 125.262 25.7469C125.262 23.9955 124.58 22.3488 123.341 21.1099C122.103 19.871 120.456 19.1893 118.704 19.1893C116.953 19.1893 115.306 19.871 114.068 21.1099L111.437 23.7413C109.487 22.2534 107.348 21.0601 105.081 20.1968V17.2137C105.081 13.5977 102.139 10.6561 98.524 10.6561H77.963V8.37964C77.963 3.75922 74.2038 0 69.5834 0H46.6535C42.0331 0 38.2739 3.75922 38.2739 8.37964V17.8477C38.2739 20.4147 40.3625 22.5034 42.9296 22.5034H73.3073C75.8743 22.5034 77.963 20.4147 77.963 17.8477V14.6467H98.523C99.9383 14.6467 101.09 15.7985 101.09 17.2137V19.0513C99.4475 18.7193 97.7666 18.5429 96.066 18.5429C82.0906 18.5429 70.7206 29.9129 70.7206 43.8883C70.7206 57.8637 82.0906 69.2337 96.066 69.2337C97.7708 69.2337 99.4517 69.0625 101.09 68.7336V129.443C101.09 130.859 99.9383 132.009 98.523 132.009H17.7128C16.2975 132.009 15.1469 130.859 15.1469 129.443V17.2137C15.1469 15.7985 16.2975 14.6467 17.7128 14.6467H30.9764C32.0784 14.6467 32.9717 13.7534 32.9717 12.6514C32.9717 11.5495 32.0784 10.6561 30.9764 10.6561H17.7128C14.0978 10.6561 11.1562 13.5977 11.1562 17.2137V129.443C11.1562 133.058 14.0978 136 17.7128 136H98.524C102.139 136 105.081 133.058 105.081 129.443V67.5798C108.258 66.371 111.188 64.5261 113.695 62.0992C118.435 57.5099 121.171 51.3569 121.397 44.7734C121.434 43.6725 120.573 42.749 119.471 42.7106C118.377 42.6743 117.447 43.5345 117.408 44.6364C117.09 53.9032 110.996 61.5544 102.628 64.2242C102.513 64.2512 102.401 64.2864 102.295 64.3331C100.325 64.9256 98.2346 65.2431 96.066 65.2431C84.2913 65.2431 74.7112 55.663 74.7112 43.8883C74.7112 32.1136 84.2913 22.5335 96.066 22.5335C100.589 22.5335 104.96 23.9633 108.587 26.5916L94.8385 40.3408L88.3047 33.806ZM73.9724 17.8477C73.9724 18.215 73.6746 18.5128 73.3073 18.5128H42.9296C42.5623 18.5128 42.2645 18.215 42.2645 17.8477V8.37964C42.2645 5.95892 44.2328 3.9906 46.6535 3.9906H69.5834C72.0031 3.9906 73.9724 5.95892 73.9724 8.37964V17.8477ZM116.891 23.9322C117.375 23.4466 118.019 23.1799 118.704 23.1799C119.39 23.1799 120.034 23.4476 120.52 23.9322C121.52 24.9324 121.52 26.5615 120.52 27.5617L96.6522 51.4285C96.1677 51.9131 95.5233 52.1808 94.8375 52.1808C94.1516 52.1808 93.5073 51.9131 93.0227 51.4285L81.8519 40.2578C81.3674 39.7732 81.1007 39.1288 81.1007 38.443C81.1007 37.7571 81.3674 37.1128 81.853 36.6282C82.3375 36.1437 82.9819 35.876 83.6677 35.876C84.3525 35.876 84.9979 36.1437 85.4825 36.6282L93.4274 44.5731C94.2066 45.3524 95.4694 45.3524 96.2486 44.5731L116.891 23.9322Z" fill="white"/>
<path d="M65.46 50.0829H41.148C40.0461 50.0829 39.1537 50.9763 39.1537 52.0782C39.1537 53.1791 40.0461 54.0724 41.148 54.0724H65.46C66.5619 54.0724 67.4553 53.1791 67.4553 52.0782C67.4553 50.9763 66.5619 50.0829 65.46 50.0829Z" fill="white"/>
<path d="M37.34 29.4874H23.9146C22.8126 29.4874 21.9193 30.3808 21.9193 31.4827C21.9193 32.5847 22.8126 33.478 23.9146 33.478H37.34C38.442 33.478 39.3353 32.5847 39.3353 31.4827C39.3353 30.3808 38.442 29.4874 37.34 29.4874Z" fill="white"/>
<path d="M41.148 63.3288H65.46C66.5619 63.3288 67.4553 62.4354 67.4553 61.3335C67.4553 60.2326 66.5619 59.3392 65.46 59.3392H41.148C40.0461 59.3392 39.1537 60.2326 39.1537 61.3335C39.1537 62.4354 40.0461 63.3288 41.148 63.3288Z" fill="white"/>
<path d="M73.8583 74.2817H41.148C40.0461 74.2817 39.1537 75.1751 39.1537 76.277C39.1537 77.379 40.0461 78.2723 41.148 78.2723H73.8583C74.9602 78.2723 75.8536 77.379 75.8536 76.277C75.8536 75.1751 74.9602 74.2817 73.8583 74.2817Z" fill="white"/>
<path d="M41.148 87.5287H57.5037C58.6056 87.5287 59.4979 86.6353 59.4979 85.5334C59.4979 84.4315 58.6056 83.5381 57.5037 83.5381H41.148C40.0461 83.5381 39.1537 84.4315 39.1537 85.5334C39.1537 86.6353 40.0461 87.5287 41.148 87.5287Z" fill="white"/>
<path d="M41.148 102.497H65.46C66.5619 102.497 67.4553 101.604 67.4553 100.502C67.4553 99.3997 66.5619 98.5063 65.46 98.5063H41.148C40.0461 98.5063 39.1537 99.3997 39.1537 100.502C39.1537 101.604 40.0461 102.497 41.148 102.497Z" fill="white"/>
<path d="M41.148 111.752H73.8583C74.9602 111.752 75.8536 110.859 75.8536 109.757C75.8536 108.656 74.9602 107.763 73.8583 107.763H41.148C40.0461 107.763 39.1537 108.656 39.1537 109.757C39.1537 110.859 40.0461 111.752 41.148 111.752Z" fill="white"/>
<path d="M28.149 48.353C23.705 48.353 20.09 51.968 20.09 56.4121C20.09 60.8561 23.705 64.4711 28.149 64.4711C32.593 64.4711 36.208 60.8561 36.208 56.4121C36.208 51.968 32.593 48.353 28.149 48.353ZM28.149 60.4805C25.9057 60.4805 24.0806 58.6553 24.0806 56.4121C24.0806 54.1688 25.9057 52.3436 28.149 52.3436C30.3923 52.3436 32.2174 54.1688 32.2174 56.4121C32.2174 58.6553 30.3923 60.4805 28.149 60.4805Z" fill="white"/>
<path d="M28.149 72.8457C23.705 72.8457 20.09 76.4617 20.09 80.9047C20.09 85.3487 23.705 88.9637 28.149 88.9637C32.593 88.9637 36.208 85.3487 36.208 80.9047C36.208 76.4617 32.593 72.8457 28.149 72.8457ZM28.149 84.9742C25.9057 84.9742 24.0806 83.149 24.0806 80.9058C24.0806 78.6614 25.9057 76.8363 28.149 76.8363C30.3923 76.8363 32.2174 78.6614 32.2174 80.9058C32.2174 83.149 30.3923 84.9742 28.149 84.9742Z" fill="white"/>
<path d="M28.149 97.0703C23.705 97.0703 20.09 100.685 20.09 105.129C20.09 109.573 23.705 113.188 28.149 113.188C32.593 113.188 36.208 109.573 36.208 105.129C36.208 100.685 32.593 97.0703 28.149 97.0703ZM28.149 109.198C25.9057 109.198 24.0806 107.373 24.0806 105.129C24.0806 102.886 25.9057 101.061 28.149 101.061C30.3923 101.061 32.2174 102.886 32.2174 105.129C32.2174 107.373 30.3923 109.198 28.149 109.198Z" fill="white"/>
</svg>
