<svg width="136" height="136" viewBox="0 0 136 136" fill="none" xmlns="http://www.w3.org/2000/svg">
<path d="M133.733 0H31.7333C30.4815 0 29.4666 1.0149 29.4666 2.26666V36.2666H33.9999V4.53332H131.466V129.2C131.488 130.392 130.569 131.39 129.379 131.466C129.184 131.466 128.989 131.451 128.794 131.446C128.393 131.435 127.992 131.426 127.597 131.385C127.563 131.385 127.531 131.385 127.497 131.371C120.095 130.562 114.247 124.72 113.431 117.318C113.431 117.286 113.419 117.252 113.415 117.22C113.36 116.682 113.333 116.141 113.333 115.6V111.066C113.333 109.815 112.318 108.8 111.066 108.8H33.9999V67.9999H29.4666V108.8H11.3333C10.0815 108.8 9.06665 109.815 9.06665 111.066V115.6C9.07912 126.861 18.2053 135.987 29.4666 136H129.426C133.105 135.903 136.028 132.879 136 129.2V2.26666C136 1.0149 134.985 0 133.733 0ZM29.4666 131.466C20.7079 131.456 13.6099 124.358 13.6 115.6V113.333H108.8V115.6C108.803 116.347 108.846 117.094 108.929 117.837C108.949 118.034 108.988 118.225 109.015 118.419C109.09 118.968 109.181 119.514 109.301 120.051C109.342 120.24 109.394 120.425 109.441 120.614C109.58 121.16 109.736 121.697 109.917 122.227C109.969 122.379 110.024 122.529 110.08 122.681C110.287 123.243 110.52 123.791 110.776 124.333C110.831 124.444 110.881 124.56 110.935 124.662C111.219 125.236 111.531 125.794 111.871 126.337C111.916 126.409 111.957 126.484 112.003 126.564C112.372 127.142 112.771 127.702 113.197 128.241L113.27 128.338C113.764 128.96 114.294 129.552 114.856 130.113C115.344 130.597 115.851 131.05 116.375 131.473L29.4666 131.466Z" fill="white"/>
<path d="M74.7998 63.4667C75.4011 63.4667 75.9774 63.2275 76.4024 62.8025L85.469 53.7359C86.3539 52.8508 86.3539 51.416 85.469 50.5308L76.4024 41.4642C75.9774 41.0392 75.4011 40.8 74.7998 40.8H11.3333C5.07421 40.8 0 45.8743 0 52.1334C0 58.3925 5.07421 63.4667 11.3333 63.4667H74.7998ZM74.215 45.687L80.6614 52.1334L74.215 58.5797L72.6034 52.1334L74.215 45.687ZM18.1333 45.3334H69.6319L68.4985 49.8667H22.6666V54.4H68.4985L69.6319 58.9333H18.1333V45.3334ZM4.53332 52.1334C4.53332 48.3778 7.57773 45.3334 11.3333 45.3334H13.6V58.9333H11.3333C7.57773 58.9333 4.53332 55.8889 4.53332 52.1334Z" fill="white"/>
<path d="M52.1332 97.4664H120.133C121.385 97.4664 122.4 96.4515 122.4 95.1998V27.1999C122.399 25.9482 121.385 24.9336 120.133 24.9338C119.532 24.9338 118.956 25.1727 118.531 25.5974L50.5307 93.5972C49.6456 94.4827 49.6459 95.9177 50.5313 96.8029C50.9563 97.2276 51.5323 97.4664 52.1332 97.4664ZM117.866 32.6717V38.5332H113.333V43.0666H117.866V47.5999H113.333V52.1332H117.866V56.6665H113.333V61.1999H117.866V65.7332H113.333V70.2665H117.866V74.7998H113.333V79.3331H117.866V83.8665H113.333V88.3998H117.866V92.9331H113.333V88.3998H108.8V92.9331H104.266V88.3998H99.7331V92.9331H95.1998V88.3998H90.6665V92.9331H86.1332V88.3998H81.5999V92.9331H77.0665V88.3998H72.5332V92.9331H67.9999V88.3998H63.4666V92.9331H57.605L117.866 32.6717Z" fill="white"/>
<path d="M84.9659 83.8665H106.533C107.785 83.8665 108.8 82.8516 108.8 81.5998V60.0326C108.8 58.7808 107.785 57.7662 106.533 57.7665C105.932 57.7665 105.356 58.0053 104.931 58.43L83.3634 79.9973C82.4782 80.8827 82.4785 82.3178 83.3639 83.2029C83.7889 83.6276 84.3649 83.8665 84.9659 83.8665ZM104.267 65.5066V79.3332H90.4399L104.267 65.5066Z" fill="white"/>
<path d="M104.266 13.6H58.9332V18.1333H104.266V13.6Z" fill="white"/>
<path d="M111.066 22.6667H52.1332V27.2001H111.066V22.6667Z" fill="white"/>
<path d="M52.1332 70.2665H38.5332V74.7998H52.1332V70.2665Z" fill="white"/>
<path d="M47.5999 79.3333H38.5332V83.8666H47.5999V79.3333Z" fill="white"/>
</svg>
