<svg width="136" height="136" viewBox="0 0 136 136" fill="none" xmlns="http://www.w3.org/2000/svg">
<path d="M88.6001 79.5943V101.299C88.6001 102.401 89.494 103.295 90.5963 103.295C91.6987 103.295 92.5925 102.401 92.5925 101.299V78.1514C92.5925 77.2682 92.0121 76.4897 91.1653 76.2381C86.6449 74.8935 82.5782 72.071 79.7145 68.2895C76.7562 64.3838 75.1925 59.7215 75.1925 54.8075C75.1925 42.4798 85.2217 32.4506 97.5493 32.4506C99.8523 32.4506 102.106 32.8012 104.246 33.4711C103.644 35.7701 102.697 37.948 101.456 39.9396C100.314 39.3999 99.0395 39.0965 97.6951 39.0965C92.8268 39.0965 88.8658 43.0573 88.8658 47.9259C88.8658 52.7943 92.8265 56.755 97.6951 56.755C102.564 56.755 106.525 52.7943 106.525 47.9259C106.525 45.8514 105.804 43.9434 104.602 42.4347C106.075 40.1551 107.21 37.6571 107.959 35.0165C110.568 36.3901 112.912 38.2845 114.84 40.6335C115.539 41.4856 116.797 41.6091 117.649 40.9097C118.501 40.2103 118.625 38.9526 117.926 38.1002C115.402 35.0258 112.275 32.6095 108.785 30.9647C108.929 29.8249 109.007 28.6686 109.007 27.4988C109.007 12.3362 96.6706 0 81.5074 0C66.3442 0 54.0083 12.3362 54.0083 27.4991C54.0083 31.6258 54.9452 35.7178 56.7209 39.4132C51.1499 47.6749 50.6569 58.5778 55.7301 67.3442L37.4142 85.6601C36.6346 86.44 36.6346 87.7035 37.4142 88.4834C38.1938 89.2628 39.4577 89.2628 40.2373 88.4834L59.6723 69.0484C60.3448 68.3759 60.4495 67.3221 59.9222 66.5306C54.0484 57.7086 55.2337 45.8575 62.7402 38.3512C68.2708 32.8206 76.2666 30.6614 83.6954 32.4047C81.0636 34.038 78.7385 36.1205 76.8306 38.5462C73.2842 38.9348 69.9785 40.5113 67.4394 43.0501C61.3136 49.176 61.3136 59.1433 67.4394 65.2694C69.7325 67.5623 72.5925 69.0511 75.7561 69.6153C76.0061 69.9816 76.2621 70.3447 76.5317 70.7006C78.1332 72.8147 80.0566 74.6717 82.2031 76.2121C76.6651 77.1277 70.9167 75.9422 66.1761 72.7855C65.3843 72.2585 64.3305 72.3626 63.6582 73.0352L45.3641 91.3293C44.5845 92.1089 44.5845 93.3728 45.3641 94.1524L49.6882 98.4768C50.7818 99.526 50.7818 101.414 49.6879 102.463C48.6387 103.556 46.7507 103.557 45.7017 102.463L41.3776 98.1386C40.598 97.3593 39.3341 97.3593 38.5545 98.1386L33.3759 103.317C32.6027 104.061 32.6027 105.397 33.3759 106.141L37.6997 110.464C38.7989 111.563 38.7989 113.352 37.7 114.451C36.6009 115.55 34.8127 115.55 33.7138 114.451L29.3897 110.126C28.6101 109.347 27.3462 109.347 26.5666 110.126L20.9027 115.79C19.8035 116.889 18.0153 116.889 16.9165 115.79C15.8173 114.691 15.8173 112.903 16.9165 111.804L34.5911 94.1293C35.3708 93.3494 35.3708 92.0858 34.5911 91.3059C33.8115 90.5266 32.5477 90.5266 31.7681 91.3059L14.0931 108.981C11.4377 111.636 11.4377 115.958 14.0931 118.614C16.7488 121.269 21.0698 121.269 23.7255 118.614L27.9779 114.361L30.8907 117.274C33.5462 119.929 37.8674 119.929 40.5231 117.274C43.1785 114.618 43.1785 110.297 40.5231 107.641L37.6105 104.729L39.9661 102.373L42.8786 105.286C45.414 107.928 49.9759 107.928 52.5113 105.286C55.1534 102.751 55.1537 98.1883 52.5113 95.6534L49.5987 92.7406L65.3625 76.9768C71.9646 80.796 79.9639 81.5628 87.2141 79.0415C87.6712 79.2378 88.1324 79.4248 88.6001 79.5943ZM97.6951 43.0889C98.1308 43.0889 98.5513 43.1521 98.9531 43.2605C97.2284 45.1701 95.1799 46.8061 92.8661 48.0824C92.8645 48.0298 92.8581 47.9785 92.8581 47.9257C92.8581 45.2588 95.028 43.0889 97.6951 43.0889ZM102.532 47.9262C102.532 50.5931 100.362 52.763 97.6951 52.763C96.5338 52.763 95.4671 52.351 94.6325 51.6662C97.4593 50.1317 99.9546 48.1419 102.037 45.8065C102.35 46.4475 102.532 47.1652 102.532 47.9262ZM59.9172 35.5279C59.7926 35.6525 59.6744 35.7813 59.5527 35.908C58.533 33.2379 58.0004 30.3787 58.0004 27.4994C58.0004 14.5377 68.5455 3.99261 81.5072 3.99261C94.4689 3.99261 105.014 14.5377 105.014 27.4994C105.014 28.174 104.982 28.8432 104.925 29.507C102.558 28.819 100.079 28.4585 97.5488 28.4585C94.5169 28.4585 91.6038 28.9749 88.8905 29.9216C79.0581 25.73 67.514 27.9307 59.9172 35.5279ZM73.7735 43.4565C72.9434 45.1879 72.2974 47.0233 71.8602 48.9374C70.8676 48.4901 69.9057 47.9772 68.9824 47.3944C69.3601 46.8608 69.7846 46.3505 70.2622 45.8729C71.2862 44.8489 72.4775 44.0348 73.7735 43.4565ZM70.2625 62.4458C67.1735 59.3568 66.1758 54.9586 67.2638 51.021C68.5409 51.7961 69.8768 52.4641 71.2623 53.0204C71.2224 53.6111 71.2004 54.2069 71.2004 54.8077C71.2004 58.1817 71.8304 61.4537 73.0425 64.5092C72.0305 63.9705 71.0963 63.2796 70.2625 62.4458Z" fill="white"/>
<path d="M122.24 45.5883C121.854 44.5553 120.704 44.0315 119.671 44.4172C118.639 44.8029 118.114 45.9528 118.5 46.9858C119.433 49.4829 119.906 52.1147 119.906 54.8076C119.906 64.5133 113.711 73.0558 104.49 76.0645C103.669 76.3325 103.113 77.0983 103.113 77.9621V89.0459L97.4588 93.4311C96.4391 94.1804 96.4393 95.8366 97.4588 96.5859L101.852 99.9931L97.4585 103.401C96.4391 104.15 96.4391 105.806 97.4585 106.555L101.852 109.962L97.4585 113.37C96.4388 114.119 96.4391 115.775 97.4585 116.524L103.113 120.91V125.7L97.62 131.142L92.5926 125.747V109.283C92.5926 108.181 91.6987 107.287 90.5964 107.287C89.494 107.287 88.6002 108.181 88.6002 109.283V126.533C88.6002 127.038 88.7917 127.524 89.136 127.894L96.1028 135.37C96.8333 136.186 98.2052 136.214 98.9681 135.427L106.515 127.951C106.893 127.576 107.106 127.065 107.106 126.533V119.932C107.106 119.315 106.821 118.733 106.333 118.355L101.94 114.947L106.333 111.54C107.353 110.791 107.353 109.135 106.333 108.385L101.94 104.978L106.333 101.571C107.353 100.822 107.353 99.1654 106.333 98.416L101.94 95.0089L106.333 91.6017C106.821 91.2235 107.106 90.6412 107.106 90.0242V79.3686C117.209 75.4485 123.899 65.7562 123.899 54.8076C123.898 51.6361 123.34 48.5341 122.24 45.5883Z" fill="white"/>
</svg>
