<svg width="48" height="48" viewBox="0 0 48 48" fill="none" xmlns="http://www.w3.org/2000/svg">
<path d="M24 0.75C10.7419 0.75 0 11.1562 0 24C0 36.8438 10.7419 47.25 24 47.25C37.2581 47.25 48 36.8438 48 24C48 11.1562 37.2581 0.75 24 0.75ZM35.7871 16.6781L31.8484 34.6594C31.5581 35.9344 30.7742 36.2438 29.6806 35.6438L23.6806 31.3594L20.7871 34.0594C20.4677 34.3687 20.1968 34.6312 19.5774 34.6312L20.0032 28.7156L31.1226 18.9844C31.6065 18.5719 31.0161 18.3375 30.3774 18.75L16.6355 27.1312L10.7129 25.3406C9.42581 24.9469 9.39677 24.0938 10.9839 23.4938L34.1226 14.85C35.1968 14.475 36.1355 15.1031 35.7871 16.6781Z" fill="white"/>
</svg>
