<svg width="110" height="110" viewBox="0 0 110 110" fill="none" xmlns="http://www.w3.org/2000/svg">
<g clip-path="url(#clip0)">
<path d="M110 22.0153C110 15.5597 104.748 10.3078 98.2924 10.3078H11.7075C5.25189 10.3078 0 15.5597 0 22.0153V87.9848C0 94.4405 5.25189 99.6923 11.7075 99.6923H98.2924C104.748 99.6923 110 94.4405 110 87.9848V22.0153ZM11.7075 13.5305H82.2985V17.4918C82.2985 20.3065 80.0087 22.5963 77.194 22.5963H66.906C62.3145 22.5963 58.579 26.3318 58.579 30.9235C58.579 35.5151 62.3145 39.2504 66.906 39.2504H70.86C72.8866 39.2504 74.5353 40.8993 74.5353 42.926C74.5353 44.9526 72.8864 46.6016 70.86 46.6016H60.3332C55.899 46.6016 52.2918 50.209 52.2918 54.643C52.2918 57.3 50.13 59.4615 47.473 59.4615H42.1861C37.5158 59.4615 33.7163 63.2613 33.7163 67.9316C33.7163 72.0856 30.3368 75.4651 26.1827 75.4651C22.0287 75.4651 18.6492 72.0856 18.6492 67.9316V66.2169C18.6492 61.5466 14.8497 57.7469 10.1794 57.7469H3.22268V22.0153C3.22268 17.3366 7.02908 13.5305 11.7075 13.5305ZM106.777 87.9846C106.777 92.663 102.971 96.4695 98.2924 96.4695H43.1482C46.5023 93.78 48.6557 89.6522 48.6557 85.0287C48.6557 83.6404 49.1967 82.3339 50.1766 81.3523C51.1604 80.3703 52.466 79.8295 53.8528 79.8295H68.0992C68.9893 79.8295 69.7105 79.108 69.7105 78.2181C69.7105 77.3283 68.9893 76.6068 68.0992 76.6068H53.8528C51.6062 76.6068 49.4919 77.4821 47.8978 79.0734C46.3083 80.6655 45.4328 82.7804 45.4328 85.0287C45.4328 91.337 40.2995 96.4692 33.9902 96.4692L11.7075 96.4697C7.02908 96.4697 3.22268 92.6633 3.22268 87.9846V60.9693H10.1796C13.0729 60.9693 15.4267 63.3234 15.4267 66.2167V67.9314C15.4267 73.8624 20.2519 78.6876 26.1829 78.6876C32.114 78.6876 36.9392 73.8624 36.9392 67.9314C36.9392 65.038 39.293 62.684 42.1863 62.684H47.4732C51.9074 62.684 55.5147 59.0767 55.5147 54.6428C55.5147 51.9858 57.6764 49.824 60.3334 49.824H70.8602C74.6638 49.824 77.7582 46.7296 77.7582 42.9258C77.7582 39.1219 74.6638 36.0275 70.8602 36.0275H66.9062C64.0917 36.0275 61.8019 33.7377 61.8019 30.923C61.8019 28.1083 64.0917 25.8187 66.9062 25.8187H77.1942C81.7859 25.8187 85.5214 22.0832 85.5214 17.4916V13.5305H98.2924C102.971 13.5305 106.777 17.3369 106.777 22.0153V30.656C106.771 33.1557 105.794 35.5054 104.025 37.2745C102.25 39.0497 99.8894 40.0273 97.3783 40.0273C93.7912 40.0273 90.8728 42.9466 90.8728 46.535V54.2135C90.8728 54.9289 90.5946 55.6003 90.088 56.1056C89.574 56.6196 88.8919 56.9029 88.1627 56.8885C86.6244 56.8699 85.1759 57.4594 84.0699 58.5512C82.9441 59.6628 82.2983 61.2087 82.2983 62.7923V65.6304C82.2983 70.6206 78.9313 74.988 74.1104 76.2512C73.2495 76.4768 72.7347 77.3575 72.9601 78.2184C73.1498 78.9424 73.8027 79.4217 74.5177 79.4217C74.6528 79.4217 74.7903 79.4045 74.9272 79.3686C81.1646 77.7343 85.521 72.085 85.521 65.6304V62.7923C85.521 62.0646 85.8175 61.3547 86.3342 60.8445C86.8141 60.3705 87.4365 60.1106 88.0903 60.1106C88.1011 60.1106 88.1116 60.1106 88.1219 60.1108C89.7292 60.1295 91.2333 59.5176 92.3651 58.3858C93.4808 57.2729 94.0955 55.7911 94.0955 54.2133V46.5347C94.0955 44.7234 95.568 43.2498 97.3783 43.2498C100.75 43.2498 103.92 41.9368 106.304 39.5529C106.467 39.3896 106.624 39.2221 106.777 39.0517V87.9846H106.777Z" fill="white"/>
<path d="M13.8941 35.8211C14.6096 35.8211 15.2816 36.0991 15.7863 36.6038C16.2912 37.1087 16.5692 37.7807 16.5692 38.4961V45.2122C16.5692 49.1737 19.7921 52.3966 23.7534 52.3966C25.6745 52.3966 27.4792 51.6487 28.8321 50.2929C30.1901 48.9376 30.938 47.1331 30.938 45.2122C30.938 43.9242 31.4392 42.7148 32.351 41.8043C33.2596 40.8945 34.469 40.3932 35.757 40.3932H40.7586C46.2163 40.3932 50.6565 35.953 50.6565 30.4953C50.6565 27.851 49.6267 25.365 47.7567 23.495C45.8867 21.6252 43.4014 20.5953 40.7586 20.5953H35.5507C34.6606 20.5953 33.9394 21.3167 33.9394 22.2066C33.9394 23.0965 34.6606 23.8179 35.5507 23.8179H40.7586C42.5407 23.8179 44.2169 24.5125 45.4781 25.7739C46.7392 27.0352 47.434 28.7119 47.434 30.4955C47.434 34.1763 44.4395 37.1708 40.7588 37.1708H35.7572C33.6075 37.1708 31.5879 38.0078 30.0726 39.5259C28.5521 41.0425 27.7151 43.062 27.7151 45.2118C27.7151 46.271 27.3033 47.2653 26.5532 48.0138C25.8069 48.7617 24.8123 49.1735 23.7534 49.1735C21.5688 49.1735 19.7918 47.3963 19.7918 45.2118V38.4957C19.7918 36.9198 19.1787 35.4387 18.0651 34.3247C16.9516 33.2114 15.4705 32.5982 13.8944 32.5982C12.7234 32.5982 11.6209 32.1412 10.7918 31.3137C9.96226 30.4824 9.50528 29.3798 9.50528 28.2087C9.50528 25.7872 11.4743 23.8173 13.8946 23.8173H29.1056C29.9957 23.8173 30.7169 23.0958 30.7169 22.206C30.7169 21.3161 29.9957 20.5946 29.1056 20.5946H13.8946C9.69735 20.5946 6.28261 24.0102 6.28261 28.2087C6.28261 30.2394 7.0741 32.1505 8.51313 33.5925C9.95237 35.0296 11.8639 35.8211 13.8941 35.8211Z" fill="white"/>
<path d="M95.4837 80.3233H88.3393C84.8509 80.3233 82.0128 83.1614 82.0128 86.6501C82.0128 90.1387 84.8509 92.9766 88.3393 92.9766H95.4837C98.9724 92.9766 101.81 90.1385 101.81 86.6501C101.81 83.1616 98.9724 80.3233 95.4837 80.3233ZM95.4837 89.7539H88.3393C86.6279 89.7539 85.2355 88.3615 85.2355 86.6501C85.2355 84.9386 86.6279 83.546 88.3393 83.546H95.4837C97.1954 83.546 98.5878 84.9384 98.5878 86.6501C98.5878 88.3617 97.1952 89.7539 95.4837 89.7539Z" fill="white"/>
</g>
<defs>
<clipPath id="clip0">
<rect width="110" height="110" fill="white"/>
</clipPath>
</defs>
</svg>
