<svg width="140" height="140" viewBox="0 0 140 140" fill="none" xmlns="http://www.w3.org/2000/svg">
<g clip-path="url(#clip0)">
<path d="M139.742 33.1983C139.26 31.4064 138.084 29.8788 136.476 28.9527C134.866 28.0221 132.953 27.7703 131.157 28.2522C129.364 28.7352 127.837 29.9096 126.911 31.518L125.744 33.548C124.636 32.9112 123.22 33.286 122.572 34.3887L116.646 44.4893L114.616 43.3228C114.078 43.0119 113.438 42.9276 112.839 43.0893C112.239 43.2522 111.728 43.6464 111.42 44.1863C110.788 45.3015 111.173 46.7186 112.283 47.3588L114.313 48.5252L94.4832 82.8894L89.5838 95.978L87.2509 100.34C85.8851 102.716 86.0309 105.67 87.6245 107.899L82.3754 114.337L80.9059 110.652C80.243 109.01 78.7085 107.884 76.944 107.746C75.1784 107.607 73.4868 108.48 72.5766 109.998L71.7371 111.421L70.9442 102.089C70.762 99.8817 69.0521 98.107 66.8536 97.8404C64.654 97.575 62.5716 98.893 61.8688 100.994L56.1299 118.21C55.7289 119.428 56.385 120.74 57.5993 121.15C57.8272 121.256 58.0721 121.32 58.3227 121.336C59.3251 121.34 60.2182 120.7 60.5394 119.75L66.2544 102.534L67.0712 112.004C67.2398 114.025 68.6922 115.705 70.6674 116.163C72.6427 116.621 74.6863 115.751 75.7263 114.011L76.5898 112.588L78.0365 116.251C78.6504 117.795 80.039 118.896 81.6828 119.141C83.3266 119.386 84.976 118.738 86.0149 117.44L91.4508 110.559C92.0523 110.716 92.672 110.795 93.294 110.792C95.7943 110.812 98.1159 109.495 99.3826 107.338L101.716 103.443L110.604 92.6414L130.644 57.857L132.674 59.0235C133.215 59.3333 133.609 59.8448 133.769 60.4474C133.931 61.0454 133.847 61.6833 133.537 62.2199L124.205 78.3875C123.853 78.9184 123.734 79.5699 123.875 80.1919C124.016 80.8127 124.405 81.3493 124.951 81.6762C125.489 81.9883 126.129 82.0726 126.729 81.9108C127.329 81.7479 127.839 81.3538 128.148 80.8139L137.48 64.6462C138.41 63.0366 138.662 61.1229 138.179 59.3276C137.696 57.5346 136.522 56.007 134.913 55.0809L132.883 53.9145L138.716 43.8127C139.352 42.7043 138.978 41.2895 137.876 40.6402L139.043 38.6103C139.998 36.9756 140.251 35.0231 139.742 33.1983ZM130.947 33.851C131.255 33.311 131.768 32.9158 132.371 32.7551C132.97 32.6071 133.603 32.6902 134.143 32.9887C134.684 33.2974 135.078 33.81 135.24 34.4114C135.388 35.0106 135.305 35.644 135.007 36.1839L133.84 38.2138L129.78 35.8809L130.947 33.851ZM99.1491 98.9875L97.9826 98.3109L94.5299 96.3037L97.8425 87.439L105.191 91.6846L99.1491 98.9875ZM92.1503 105.729C91.1649 105.042 90.8619 103.721 91.4508 102.673L92.6173 100.644L96.676 102.977L95.5096 104.983C95.1826 105.55 94.6336 105.953 93.9945 106.096C93.3555 106.237 92.6868 106.105 92.1503 105.729ZM107.851 87.8594L99.779 83.1935L118.443 50.8582L126.514 55.5241L107.851 87.8594ZM128.847 51.4881L120.775 46.8222L125.441 38.7504L133.513 43.4163L128.847 51.4881Z" fill="#E31E24"/>
<path d="M36.8131 104.563L28.5556 112.799L23.6095 107.853C22.6994 106.948 21.2299 106.948 20.3197 107.853C19.8778 108.291 19.6294 108.887 19.6294 109.509C19.6294 110.131 19.8778 110.728 20.3197 111.165L25.2658 116.111C26.1407 116.979 27.3231 117.466 28.5556 117.465C29.795 117.471 30.9876 116.985 31.8682 116.111L40.1029 107.853C40.8957 106.926 40.8422 105.547 39.981 104.686C39.1187 103.823 37.7392 103.77 36.8131 104.563Z" fill="#E31E24"/>
<path d="M9.33127 110.838C9.33127 121.791 18.2096 130.668 29.1612 130.668C40.1128 130.668 48.9912 121.791 48.9912 110.838C48.9912 109.549 47.9466 108.505 46.6582 108.505C45.3699 108.505 44.3253 109.549 44.3253 110.838C44.3253 119.213 37.5361 126.002 29.1612 126.002C20.7863 126.002 13.9971 119.213 13.9971 110.838C13.9971 102.463 20.7863 95.6737 29.1612 95.6737C32.4442 95.6646 35.6394 96.7297 38.2594 98.7072C39.2903 99.4807 40.753 99.2711 41.5253 98.2402C42.2988 97.2093 42.0903 95.7478 41.0594 94.9743C35.0505 90.4679 27.0105 89.7434 20.2931 93.1016C13.5745 96.4609 9.33127 103.328 9.33127 110.838Z" fill="#E31E24"/>
<path d="M83.9861 18.6871C85.2744 18.6871 86.319 17.6437 86.319 16.3542C86.319 15.0658 85.2744 14.0212 83.9861 14.0212H23.3295C22.0412 14.0212 20.9966 15.0658 20.9966 16.3542V25.6859C20.9966 26.9754 22.0412 28.0189 23.3295 28.0189H83.9861C85.2744 28.0189 86.319 26.9754 86.319 25.6859C86.319 24.3976 85.2744 23.353 83.9861 23.353H25.6625V18.6871H83.9861Z" fill="#E31E24"/>
<path d="M30.3279 32.6844C29.0396 32.6844 27.995 33.729 27.995 35.0173C27.995 36.3068 29.0396 37.3502 30.3279 37.3502H76.9868C78.2752 37.3502 79.3198 36.3068 79.3198 35.0173C79.3198 33.729 78.2752 32.6844 76.9868 32.6844H30.3279Z" fill="#E31E24"/>
<path d="M90.9849 49.0146H39.6604C38.372 49.0146 37.3275 50.0592 37.3275 51.3475C37.3275 52.637 38.372 53.6805 39.6604 53.6805H90.9849C92.2732 53.6805 93.3178 52.637 93.3178 51.3475C93.3178 50.0592 92.2732 49.0146 90.9849 49.0146Z" fill="#E31E24"/>
<path d="M67.6555 65.3456C67.6555 64.0573 66.6109 63.0127 65.3226 63.0127H18.6639C17.3755 63.0127 16.3309 64.0573 16.3309 65.3456C16.3309 66.6351 17.3755 67.6786 18.6639 67.6786H65.3226C66.6109 67.6786 67.6555 66.6351 67.6555 65.3456Z" fill="#E31E24"/>
<path d="M90.9843 63.0127H74.6538C73.3654 63.0127 72.3209 64.0573 72.3209 65.3456C72.3209 66.6351 73.3654 67.6786 74.6538 67.6786H90.9843C92.2727 67.6786 93.3173 66.6351 93.3173 65.3456C93.3173 64.0573 92.2727 63.0127 90.9843 63.0127Z" fill="#E31E24"/>
<path d="M41.9932 79.3432C43.2816 79.3432 44.3262 78.2998 44.3262 77.0103C44.3262 75.7219 43.2816 74.6774 41.9932 74.6774H18.6639C17.3755 74.6774 16.3309 75.7219 16.3309 77.0103C16.3309 78.2998 17.3755 79.3432 18.6639 79.3432H41.9932Z" fill="#E31E24"/>
<path d="M51.3245 79.3432H67.6551C68.9434 79.3432 69.988 78.2998 69.988 77.0103C69.988 75.7219 68.9434 74.6774 67.6551 74.6774H51.3245C50.0362 74.6774 48.9916 75.7219 48.9916 77.0103C48.9916 78.2998 50.0362 79.3432 51.3245 79.3432Z" fill="#E31E24"/>
<path d="M104.982 107.339C103.693 107.339 102.649 108.384 102.649 109.672V133.001C102.649 134.291 101.604 135.334 100.316 135.334H6.99879C5.71044 135.334 4.66586 134.291 4.66586 133.001V7.02286C4.66586 5.7345 5.71044 4.68992 6.99879 4.68992H100.316C101.604 4.68992 102.649 5.7345 102.649 7.02286V50.836C102.649 52.1244 103.693 53.169 104.982 53.169C106.27 53.169 107.315 52.1244 107.315 50.836V7.02286C107.315 3.15779 104.181 0.0240479 100.316 0.0240479H6.99879C3.13373 0.0240479 0 3.15779 0 7.02286V133.001C0 136.868 3.13373 140 6.99879 140H100.316C104.181 140 107.315 136.868 107.315 133.001V109.672C107.315 108.384 106.27 107.339 104.982 107.339Z" fill="#E31E24"/>
</g>
<defs>
<clipPath id="clip0">
<rect width="140" height="140" fill="white"/>
</clipPath>
</defs>
</svg>
