<svg width="140" height="140" viewBox="0 0 140 140" fill="none" xmlns="http://www.w3.org/2000/svg">
<path d="M77.7855 15.7586H69.9228C68.5263 15.7586 67.3902 16.8947 67.3902 18.2915V27.7264C67.3899 29.1229 68.5261 30.259 69.9228 30.259H77.7855C79.1819 30.259 80.3183 29.1229 80.3183 27.7261V18.2915C80.3183 16.895 79.1822 15.7586 77.7855 15.7586ZM76.3179 26.2589H71.39V19.7587H76.3179V26.2589Z" fill="#E31E24"/>
<path d="M93.4179 15.7586H85.5552C84.1588 15.7586 83.0226 16.8947 83.0226 18.2915V27.7264C83.0226 29.1229 84.1585 30.259 85.5552 30.259H93.4179C94.8143 30.259 95.9505 29.1229 95.9505 27.7261V18.2915C95.9505 16.895 94.8143 15.7586 93.4179 15.7586ZM91.9501 26.2589H87.0225V19.7587H91.9501V26.2589Z" fill="#E31E24"/>
<path d="M109.051 15.7586H101.189C99.7923 15.7586 98.6562 16.8947 98.6562 18.2915V27.7264C98.6562 29.1229 99.7923 30.259 101.189 30.259H109.051C110.448 30.259 111.584 29.1229 111.584 27.7261V18.2915C111.584 16.895 110.448 15.7586 109.051 15.7586ZM107.584 26.2589H102.656V19.7587H107.584V26.2589Z" fill="#E31E24"/>
<path d="M77.7855 39.1887H69.9228C68.5263 39.1887 67.3902 40.3248 67.3902 41.7215V51.1565C67.3899 52.5532 68.5261 53.6893 69.9228 53.6893H77.7855C79.1819 53.6893 80.3183 52.5532 80.3183 51.1565V41.7215C80.3183 40.3251 79.1822 39.1887 77.7855 39.1887ZM76.3179 49.6895H71.39V43.1893H76.3179V49.6895Z" fill="#E31E24"/>
<path d="M93.4179 39.1887H85.5552C84.1588 39.1887 83.0226 40.3248 83.0226 41.7215V51.1565C83.0226 52.5532 84.1585 53.6893 85.5552 53.6893H93.4179C94.8143 53.6893 95.9505 52.5532 95.9505 51.1565V41.7215C95.9505 40.3251 94.8143 39.1887 93.4179 39.1887ZM91.9501 49.6895H87.0225V43.1893H91.9501V49.6895Z" fill="#E31E24"/>
<path d="M109.051 39.1887H101.189C99.7923 39.1887 98.6562 40.3248 98.6562 41.7215V51.1565C98.6562 52.5532 99.7923 53.6893 101.189 53.6893H109.051C110.448 53.6893 111.584 52.5532 111.584 51.1565V41.7215C111.584 40.3251 110.448 39.1887 109.051 39.1887ZM107.584 49.6895H102.656V43.1893H107.584V49.6895Z" fill="#E31E24"/>
<path d="M77.7855 62.6182H69.9228C68.5263 62.6182 67.3902 63.7543 67.3902 65.151V74.586C67.3899 75.9824 68.5261 77.1188 69.9228 77.1188H77.7855C79.1819 77.1188 80.3183 75.9827 80.3183 74.586V65.151C80.3183 63.7546 79.1822 62.6182 77.7855 62.6182ZM76.3179 73.1187H71.39V66.6186H76.3179V73.1187Z" fill="#E31E24"/>
<path d="M93.4179 62.6182H85.5552C84.1588 62.6182 83.0226 63.7543 83.0226 65.151V74.586C83.0226 75.9824 84.1585 77.1188 85.5552 77.1188H93.4179C94.8143 77.1188 95.9505 75.9827 95.9505 74.586V65.151C95.9505 63.7546 94.8143 62.6182 93.4179 62.6182ZM91.9501 73.1187H87.0225V66.6186H91.9501V73.1187Z" fill="#E31E24"/>
<path d="M109.051 62.6182H101.189C99.7923 62.6182 98.6562 63.7543 98.6562 65.151V74.586C98.6562 75.9824 99.7923 77.1188 101.189 77.1188H109.051C110.448 77.1188 111.584 75.9827 111.584 74.586V65.151C111.584 63.7546 110.448 62.6182 109.051 62.6182ZM107.584 73.1187H102.656V66.6186H107.584V73.1187Z" fill="#E31E24"/>
<path d="M109.051 86.049H101.189C99.7923 86.049 98.6562 87.1851 98.6562 88.5816V98.0165C98.6562 99.413 99.7923 100.549 101.189 100.549H109.051C110.448 100.549 111.584 99.4133 111.584 98.0165V88.5816C111.584 87.1851 110.448 86.049 109.051 86.049ZM107.584 96.549H102.656V90.0491H107.584V96.549Z" fill="#E31E24"/>
<path d="M134.902 94.9616C132.339 91.1947 127.177 90.1975 123.399 92.7369L117.9 96.4171V10.3805H118.298C119.746 10.3805 120.924 9.20254 120.924 7.75441V2.62609C120.924 1.17797 119.746 0 118.298 0H105.527C104.422 0 103.527 0.895508 103.527 1.99992C103.527 3.10434 104.422 3.99984 105.527 3.99984H116.924V6.38012H60.7683V3.99984H93.0022C94.1069 3.99984 95.0022 3.10434 95.0022 1.99992C95.0022 0.895508 94.1067 0 93.002 0H59.3943C57.9462 0 56.7682 1.17797 56.7682 2.62609V7.75441C56.7682 9.20254 57.9462 10.3805 59.3943 10.3805H60.4099V36.0702H56.3031V31.1336C56.3031 29.4148 54.9047 28.0164 53.1862 28.0164H38.0848C36.3659 28.0164 34.9676 29.4148 34.9676 31.1336V36.07H32.0938C30.3077 36.07 28.8546 37.523 28.8546 39.3091V85.1769C28.0081 85.123 27.159 85.094 26.3081 85.094H23.1559V84.0544C23.1559 80.1741 19.9991 77.0172 16.1184 77.0172H10.0375C6.15712 77.0172 3.00001 80.1741 3.00001 84.0544V112.615C3.00001 113.72 3.89552 114.615 4.99993 114.615C6.10434 114.615 6.99985 113.719 6.99985 112.615V84.0544C6.99985 82.3799 8.36239 81.0173 10.0372 81.0173H16.1182C17.793 81.0173 19.1555 82.3799 19.1555 84.0544V129.056C19.1555 130.73 17.793 132.093 16.1182 132.093H10.0375C8.36266 132.093 7.00013 130.73 7.00013 129.056V125.132C7.00013 124.027 6.10462 123.132 5.0002 123.132C3.89579 123.132 3.00028 124.027 3.00028 125.132V129.056C3.00028 132.936 6.15712 136.093 10.0377 136.093H16.1187C19.9991 136.093 23.1562 132.936 23.1562 129.056V128.942L50.8508 139.429C50.9049 139.45 50.9599 139.468 51.0156 139.484C52.2324 139.827 53.4487 140 54.654 140C55.3092 140 55.961 139.949 56.608 139.847C56.6085 139.847 56.6099 139.847 56.6118 139.846L97.491 133.954C97.5011 133.952 97.511 133.951 97.5211 133.949C101.016 133.391 104.312 131.914 107.054 129.678C107.079 129.658 107.104 129.636 107.127 129.615L133.549 105.851C136.663 103.086 137.244 98.4047 134.902 94.9616ZM64.41 10.3805H113.9V99.0943L97.2588 110.231L91.6796 109.918L91.5374 108.49C91.4333 107.44 91.1981 106.431 90.8481 105.479C90.7313 105.161 90.602 104.85 90.4606 104.546C90.2482 104.089 90.0087 103.649 89.7437 103.225C89.1172 102.225 88.3489 101.324 87.4657 100.549H93.0865C94.4829 100.549 95.619 99.4129 95.619 98.0161V88.5812C95.619 87.1847 94.4829 86.0486 93.0865 86.0486H85.2238C83.8273 86.0486 82.6912 87.1847 82.6912 88.5812V97.9713C82.1859 97.8318 81.6672 97.7227 81.1364 97.6475C81.1195 97.6451 81.1022 97.6429 81.085 97.641L79.9858 97.5144V88.5809C79.9858 87.1845 78.8497 86.048 77.4529 86.048H69.5902C68.1938 86.048 67.0577 87.1842 67.0577 88.5809V96.0261L64.41 95.7214V10.3805ZM86.6908 96.5489V90.049H91.6184V96.5489H86.6908ZM75.9854 90.0487V96.5489H71.5948L71.0575 96.4871V90.0487H75.9854ZM38.9677 32.0165H52.303V36.07H38.9677V32.0165ZM32.8542 40.0701H60.4099V46.3247H37.8223C36.5292 46.3247 35.4773 47.3766 35.4773 48.6697V54.7086C35.4773 56.0016 36.5292 57.0536 37.8223 57.0536H60.4099V62.6804H37.8223C36.5292 62.6804 35.4773 63.7323 35.4773 65.0254V71.0639C35.4773 72.357 36.5292 73.409 37.8223 73.409H60.4099V79.0357H37.8223C36.5292 79.0357 35.4773 80.0877 35.4773 81.3807V86.1558C35.1377 86.0768 34.7967 86.0029 34.4543 85.9324C34.293 85.899 34.1317 85.8673 33.9698 85.8359C33.7806 85.7992 33.5906 85.7648 33.4005 85.7309C33.2184 85.698 33.0368 85.663 32.8542 85.633V40.0701ZM60.4099 50.3248V53.0534H39.4774V50.3248H60.4099ZM60.4099 66.6802V69.4088H39.4774V66.6802H60.4099ZM39.4774 85.7645V83.0359H60.4099V85.7645H39.4774ZM60.4099 89.7646V95.261L59.7938 95.1899C58.5015 95.0061 57.2284 94.7527 55.9752 94.4352C53.5458 93.8197 51.1936 92.9567 48.9392 91.8485C48.6395 91.7011 48.3422 91.5485 48.0461 91.3924C47.5627 91.1378 47.0836 90.8734 46.6097 90.5961C46.2608 90.3919 45.9086 90.1955 45.5551 90.0025C45.4785 89.9607 45.402 89.9194 45.3251 89.8784C45.2549 89.8406 45.1849 89.8018 45.1146 89.7646H60.4099ZM130.884 102.869L104.49 126.607C102.304 128.379 99.6829 129.55 96.9045 129.997L56.025 135.889C56.016 135.891 55.9788 135.896 55.9701 135.898C54.747 136.091 53.473 136.01 52.1824 135.656L23.1559 124.665V89.0944H26.3078C27.7581 89.0944 29.2027 89.1866 30.6352 89.3594C30.9262 89.3944 31.216 89.4329 31.5053 89.4748C31.5474 89.4808 31.5893 89.4873 31.6311 89.4936C32.362 89.6019 33.0863 89.7334 33.8047 89.8844C34.0281 89.9317 34.2517 89.9793 34.4743 90.0307C34.5856 90.0564 34.6963 90.0834 34.8074 90.11C35.0975 90.18 35.387 90.2527 35.6755 90.3301C35.7275 90.344 35.7797 90.3574 35.8317 90.3716C38.0913 90.9877 40.2914 91.8231 42.398 92.8679C42.4609 92.899 42.5235 92.9307 42.5861 92.9625C42.8541 93.0973 43.1201 93.2362 43.3848 93.3775C43.4655 93.4207 43.5464 93.4631 43.6268 93.5069C43.9454 93.6805 44.2623 93.8577 44.5759 94.0412C44.5806 94.0439 44.5852 94.0464 44.5899 94.0491C45.44 94.5462 46.304 95.0108 47.1815 95.442C50.9834 97.3107 55.0335 98.5567 59.2584 99.1545C59.2756 99.1569 59.2926 99.1591 59.3098 99.161L62.1812 99.4916L64.5196 99.7609L69.9126 100.382L71.2508 100.536C71.2511 100.536 71.2514 100.536 71.2517 100.536L80.5994 101.612C84.3247 102.151 87.184 105.138 87.5567 108.886L87.6262 109.583L50.1376 105.929C49.0349 105.822 48.0601 106.626 47.9529 107.726C47.846 108.825 48.6501 109.803 49.7496 109.911L89.4916 113.784C89.575 113.8 89.6597 113.812 89.7464 113.817L97.7026 114.263C97.7401 114.265 97.7776 114.266 97.8147 114.266C97.8544 114.266 97.8932 114.26 97.9329 114.257C97.9783 114.255 98.0234 114.253 98.0682 114.247C98.1256 114.24 98.182 114.227 98.2386 114.215C98.2829 114.206 98.3274 114.198 98.3706 114.185C98.4308 114.168 98.489 114.144 98.5473 114.121C98.5842 114.107 98.6219 114.095 98.6577 114.078C98.7507 114.035 98.841 113.985 98.9271 113.928L117.012 101.825L117.012 101.825L125.627 96.0594C127.588 94.7414 130.265 95.2585 131.595 97.2122C132.81 98.9978 132.508 101.426 130.884 102.869Z" fill="#E31E24"/>
</svg>
