<svg width="140" height="140" viewBox="0 0 140 140" fill="none" xmlns="http://www.w3.org/2000/svg">
<path d="M101.32 94.3437C100.653 95.7475 99.7606 97.0255 98.668 98.14L101.999 101.408C103.455 99.9218 104.645 98.2196 105.536 96.3445L101.32 94.3437Z" fill="#E31E24"/>
<path d="M88.6671 69.6779V74.3445C96.3872 74.3445 102.667 80.6244 102.667 88.3445H107.334C107.334 78.0516 98.9597 69.6779 88.6671 69.6779Z" fill="#E31E24"/>
<path d="M135.816 125.195L117.708 107.086C125.814 96.7707 130.666 83.7845 130.666 69.678C130.666 36.2253 103.451 9.01135 69.9996 9.01135C36.548 9.01135 9.33292 36.2253 9.33292 69.678C9.33292 103.131 36.548 130.345 69.9996 130.345C84.1063 130.345 97.0931 125.492 107.408 117.385L125.516 135.494C126.936 136.914 128.801 137.623 130.666 137.623C132.531 137.623 134.396 136.914 135.816 135.494C137.192 134.12 137.949 132.291 137.949 130.345C137.949 128.399 137.192 126.569 135.816 125.195ZM86.3329 16.1143C106.208 22.1871 121.408 39.0408 125.114 59.8279C120.022 57.2898 116.666 52.1255 116.666 46.2146C116.666 43.9656 115.416 41.9443 113.407 40.9395L111.202 39.8367C109.359 38.9162 107.213 39.0163 105.463 40.0943C103.712 41.1766 102.666 43.0521 102.666 45.1118C102.666 45.7908 102.113 46.3447 101.434 46.3447H97.7079C91.4359 46.3447 86.3329 41.2429 86.3329 34.9697V16.1143ZM81.6663 14.9091V34.9697C81.6663 43.8154 88.8623 51.0114 97.7079 51.0114H101.435C104.687 51.0114 107.333 48.3659 107.333 45.1118C107.333 44.492 107.741 44.1729 107.916 44.0659C108.094 43.9589 108.566 43.7378 109.114 44.0111L111.318 45.1139C111.739 45.3236 112 45.745 112 46.2143C112 54.9757 117.596 62.5474 125.804 65.1881C125.922 66.6707 126 68.1649 126 69.6774C126 82.4962 121.66 94.3145 114.386 103.764L112.911 102.289C115.286 98.1779 116.666 93.4241 116.666 88.3447C116.666 72.9044 104.105 60.3447 88.6663 60.3447C84.2749 60.3447 80.133 61.3891 76.4303 63.1986C81.7164 47.6406 75.6057 22.5677 73.1438 13.7716C76.049 13.9329 78.8945 14.3194 81.6663 14.9091ZM70.3869 21.7785C73.6332 35.8228 76.43 56.6621 69.8406 66.2194L63.1898 59.5686L70.3869 21.7785ZM22.107 70.0654L59.8901 62.8679L66.541 69.5188C56.9898 76.1005 36.1537 73.3081 22.107 70.0654ZM47.0588 78.1798L43.3039 83.4386C42.4505 84.6327 41.9993 86.0385 41.9993 87.5059V97.6777C41.9993 98.9652 40.9522 100.011 39.666 100.011H37.745C36.8986 100.011 36.117 99.5508 35.7057 98.8126L25.7263 80.85C25.6091 80.638 25.5257 80.4102 25.4778 80.171L24.5165 75.3667C31.0726 76.7506 39.1862 78.036 47.0588 78.1798ZM30.7879 63.6601C33.3805 46.5206 46.8427 33.059 63.9822 30.4655L58.6715 58.3485L30.7879 63.6601ZM67.1658 13.7498L64.8931 25.6819C44.4394 28.0216 28.3429 44.1169 26.0025 64.5715L14.0716 66.8442C15.5055 38.2165 38.5381 15.1839 67.1658 13.7498ZM69.9996 125.678C40.1767 125.678 15.7292 102.242 14.0929 72.8207C15.5177 73.2197 17.3578 73.7089 19.5322 74.2371L20.9028 81.0848C21.0439 81.7959 21.2936 82.4769 21.6468 83.1128L31.6273 101.078C32.8602 103.299 35.2049 104.678 37.7456 104.678H39.6663C43.5262 104.678 46.6663 101.538 46.6663 97.678V87.5061C46.6663 87.0162 46.8168 86.5492 47.1014 86.1505L52.8858 78.0506C56.6952 77.7995 60.311 77.1838 63.5304 76.0874C61.7145 79.7954 60.6663 83.9449 60.6663 88.3447C60.6663 103.785 73.2272 116.345 88.6663 116.345C93.7462 116.345 98.5004 114.964 102.612 112.589L104.087 114.064C94.6378 121.338 82.8189 125.678 69.9996 125.678ZM88.6663 111.678C75.8 111.678 65.3329 101.21 65.3329 88.3447C65.3329 75.4796 75.8 65.0114 88.6663 65.0114C101.533 65.0114 112 75.4796 112 88.3447C112 101.21 101.533 111.678 88.6663 111.678ZM107.685 111.063L106.518 109.896C107.863 108.78 109.103 107.541 110.219 106.195L111.386 107.362C110.21 108.652 108.975 109.887 107.685 111.063ZM132.517 132.195C131.496 133.216 129.837 133.216 128.816 132.195L110.983 114.362C112.269 113.182 113.504 111.947 114.684 110.661L132.517 128.494C133.011 128.989 133.283 129.645 133.283 130.345C133.283 131.044 133.011 131.7 132.517 132.195Z" fill="#E31E24"/>
<path d="M74.6667 88.344C74.6667 84.55 76.1591 80.9999 78.8696 78.3431L75.6044 75.0117C71.9903 78.5502 70 83.2854 70 88.344C70 98.6367 78.374 107.011 88.6667 107.011V102.344C80.9465 102.344 74.6667 96.0639 74.6667 88.344Z" fill="#E31E24"/>
<path d="M58.5887 106.71L54.2204 103.798C52.3724 102.567 49.8956 102.809 48.329 104.384L47.1306 105.582C46.1074 106.605 45.6221 108.016 45.7988 109.451C45.9756 110.887 46.7879 112.138 48.0295 112.883L53.5974 116.223C54.3458 116.672 55.1718 116.898 55.999 116.898C56.7862 116.898 57.5746 116.693 58.2982 116.285C59.7816 115.444 60.6668 113.927 60.6668 112.222V110.593C60.6668 109.03 59.8898 107.578 58.5887 106.71ZM55.999 112.222L50.4299 108.882L51.6307 107.681L55.9999 110.593L55.999 112.222Z" fill="#E31E24"/>
<path d="M9.17146 45.7905L4.82825 44.0816C1.62458 52.2322 0 60.8431 0 69.6777C0 76.2402 0.906792 82.7344 2.69675 88.9825L7.18346 87.6974C5.51308 81.8682 4.66667 75.8047 4.66667 69.6777C4.66667 61.4311 6.18187 53.3942 9.17146 45.7905Z" fill="#E31E24"/>
<path d="M89.3167 2.37799L88.0316 6.86237C115.881 14.8447 135.333 40.6753 135.333 69.678H140C140 38.6039 119.158 10.93 89.3167 2.37799Z" fill="#E31E24"/>
</svg>
