<svg width="219" height="202" viewBox="0 0 219 202" fill="none" xmlns="http://www.w3.org/2000/svg">
<circle cx="95" cy="95" r="95" fill="#E31E24"/>
<path d="M115.148 54.806C113.91 53.5681 112.263 52.8854 110.511 52.8854C108.76 52.8854 107.113 53.5681 105.875 54.806C104.637 56.0449 103.954 57.6915 103.954 59.443C103.954 61.1945 104.637 62.8411 105.874 64.079L117.045 75.2498C118.283 76.4876 119.931 77.1703 121.682 77.1703C123.434 77.1703 125.079 76.4876 126.318 75.2498L150.185 51.3829C151.424 50.144 152.106 48.4974 152.106 46.7469C152.106 44.9955 151.424 43.3488 150.185 42.1099C148.947 40.871 147.299 40.1893 145.548 40.1893C143.797 40.1893 142.15 40.871 140.912 42.1099L138.281 44.7413C136.331 43.2534 134.192 42.0601 131.924 41.1968V38.2137C131.924 34.5977 128.983 31.6561 125.368 31.6561H104.807V29.3796C104.807 24.7592 101.048 21 96.4271 21H73.4973C68.8768 21 65.1176 24.7592 65.1176 29.3796V38.8477C65.1176 41.4147 67.2063 43.5034 69.7733 43.5034H100.151C102.718 43.5034 104.807 41.4147 104.807 38.8477V35.6467H125.367C126.782 35.6467 127.934 36.7985 127.934 38.2137V40.0513C126.291 39.7193 124.61 39.5429 122.91 39.5429C108.934 39.5429 97.5643 50.9129 97.5643 64.8883C97.5643 78.8637 108.934 90.2337 122.91 90.2337C124.615 90.2337 126.295 90.0625 127.934 89.7336V150.443C127.934 151.859 126.782 153.009 125.367 153.009H44.5566C43.1413 153.009 41.9906 151.859 41.9906 150.443V38.2137C41.9906 36.7985 43.1413 35.6467 44.5566 35.6467H57.8202C58.9221 35.6467 59.8155 34.7534 59.8155 33.6514C59.8155 32.5495 58.9221 31.6561 57.8202 31.6561H44.5566C40.9416 31.6561 38 34.5977 38 38.2137V150.443C38 154.058 40.9416 157 44.5566 157H125.368C128.983 157 131.924 154.058 131.924 150.443V88.5798C135.102 87.371 138.032 85.5261 140.539 83.0992C145.278 78.5099 148.014 72.3569 148.241 65.7734C148.278 64.6725 147.417 63.749 146.315 63.7106C145.221 63.6743 144.29 64.5345 144.252 65.6364C143.934 74.9032 137.84 82.5544 129.471 85.2242C129.356 85.2512 129.244 85.2864 129.138 85.3331C127.169 85.9256 125.078 86.2431 122.91 86.2431C111.135 86.2431 101.555 76.663 101.555 64.8883C101.555 53.1136 111.135 43.5335 122.91 43.5335C127.433 43.5335 131.804 44.9633 135.43 47.5916L121.682 61.3408L115.148 54.806ZM100.816 38.8477C100.816 39.215 100.518 39.5128 100.151 39.5128H69.7733C69.406 39.5128 69.1082 39.215 69.1082 38.8477V29.3796C69.1082 26.9589 71.0765 24.9906 73.4973 24.9906H96.4271C98.8468 24.9906 100.816 26.9589 100.816 29.3796V38.8477ZM143.734 44.9322C144.219 44.4466 144.863 44.1799 145.548 44.1799C146.234 44.1799 146.878 44.4476 147.364 44.9322C148.364 45.9324 148.364 47.5615 147.364 48.5617L123.496 72.4285C123.011 72.9131 122.367 73.1808 121.681 73.1808C120.995 73.1808 120.351 72.9131 119.866 72.4285L108.696 61.2578C108.211 60.7732 107.944 60.1288 107.944 59.443C107.944 58.7571 108.211 58.1128 108.697 57.6282C109.181 57.1437 109.826 56.876 110.511 56.876C111.196 56.876 111.842 57.1437 112.326 57.6282L120.271 65.5731C121.05 66.3524 122.313 66.3524 123.092 65.5731L143.734 44.9322Z" fill="white"/>
<path d="M116.304 71.083H91.9918C90.8899 71.083 89.9976 71.9764 89.9976 73.0783C89.9976 74.1792 90.8899 75.0726 91.9918 75.0726H116.304C117.406 75.0726 118.299 74.1792 118.299 73.0783C118.299 71.9764 117.406 71.083 116.304 71.083Z" fill="white"/>
<path d="M88.184 50.4873H74.7585C73.6566 50.4873 72.7632 51.3807 72.7632 52.4826C72.7632 53.5845 73.6566 54.4779 74.7585 54.4779H88.184C89.2859 54.4779 90.1793 53.5845 90.1793 52.4826C90.1793 51.3807 89.2859 50.4873 88.184 50.4873Z" fill="white"/>
<path d="M91.9918 84.3289H116.304C117.406 84.3289 118.299 83.4355 118.299 82.3336C118.299 81.2327 117.406 80.3394 116.304 80.3394H91.9918C90.8899 80.3394 89.9976 81.2327 89.9976 82.3336C89.9976 83.4355 90.8899 84.3289 91.9918 84.3289Z" fill="white"/>
<path d="M124.702 95.2817H91.9918C90.8899 95.2817 89.9976 96.1751 89.9976 97.277C89.9976 98.379 90.8899 99.2723 91.9918 99.2723H124.702C125.804 99.2723 126.697 98.379 126.697 97.277C126.697 96.1751 125.804 95.2817 124.702 95.2817Z" fill="white"/>
<path d="M91.9918 108.529H108.347C109.449 108.529 110.342 107.635 110.342 106.533C110.342 105.431 109.449 104.538 108.347 104.538H91.9918C90.8899 104.538 89.9976 105.431 89.9976 106.533C89.9976 107.635 90.8899 108.529 91.9918 108.529Z" fill="white"/>
<path d="M91.9918 123.497H116.304C117.406 123.497 118.299 122.604 118.299 121.502C118.299 120.4 117.406 119.506 116.304 119.506H91.9918C90.8899 119.506 89.9976 120.4 89.9976 121.502C89.9976 122.604 90.8899 123.497 91.9918 123.497Z" fill="white"/>
<path d="M91.9918 132.752H124.702C125.804 132.752 126.697 131.859 126.697 130.757C126.697 129.656 125.804 128.763 124.702 128.763H91.9918C90.8899 128.763 89.9976 129.656 89.9976 130.757C89.9976 131.859 90.8899 132.752 91.9918 132.752Z" fill="white"/>
<path d="M78.9926 69.353C74.5486 69.353 70.9336 72.968 70.9336 77.4121C70.9336 81.8561 74.5486 85.4711 78.9926 85.4711C83.4366 85.4711 87.0516 81.8561 87.0516 77.4121C87.0516 72.968 83.4366 69.353 78.9926 69.353ZM78.9926 81.4805C76.7493 81.4805 74.9242 79.6553 74.9242 77.4121C74.9242 75.1688 76.7493 73.3436 78.9926 73.3436C81.2359 73.3436 83.061 75.1688 83.061 77.4121C83.061 79.6553 81.2359 81.4805 78.9926 81.4805Z" fill="white"/>
<path d="M78.9926 93.8457C74.5486 93.8457 70.9336 97.4617 70.9336 101.905C70.9336 106.349 74.5486 109.964 78.9926 109.964C83.4366 109.964 87.0516 106.349 87.0516 101.905C87.0516 97.4617 83.4366 93.8457 78.9926 93.8457ZM78.9926 105.974C76.7493 105.974 74.9242 104.149 74.9242 101.906C74.9242 99.6614 76.7493 97.8363 78.9926 97.8363C81.2359 97.8363 83.061 99.6614 83.061 101.906C83.061 104.149 81.2359 105.974 78.9926 105.974Z" fill="white"/>
<path d="M78.9926 118.07C74.5486 118.07 70.9336 121.685 70.9336 126.129C70.9336 130.573 74.5486 134.188 78.9926 134.188C83.4366 134.188 87.0516 130.573 87.0516 126.129C87.0516 121.685 83.4366 118.07 78.9926 118.07ZM78.9926 130.198C76.7493 130.198 74.9242 128.373 74.9242 126.129C74.9242 123.886 76.7493 122.061 78.9926 122.061C81.2359 122.061 83.061 123.886 83.061 126.129C83.061 128.373 81.2359 130.198 78.9926 130.198Z" fill="white"/>
<circle cx="169" cy="152" r="50" fill="white"/>
<path d="M150.792 139.8V165H146.112V143.724H140.784V139.8H150.792ZM167.239 149.448C168.895 149.448 170.383 149.772 171.703 150.42C173.023 151.044 174.055 151.944 174.799 153.12C175.543 154.296 175.915 155.652 175.915 157.188C175.915 158.82 175.507 160.26 174.691 161.508C173.875 162.732 172.771 163.68 171.379 164.352C169.987 165.024 168.427 165.36 166.699 165.36C163.243 165.36 160.555 164.28 158.635 162.12C156.739 159.96 155.791 156.864 155.791 152.832C155.791 150 156.307 147.588 157.339 145.596C158.371 143.58 159.811 142.056 161.659 141.024C163.531 139.968 165.691 139.44 168.139 139.44C169.435 139.44 170.647 139.584 171.775 139.872C172.927 140.136 173.923 140.532 174.763 141.06L173.035 144.588C171.787 143.772 170.191 143.364 168.247 143.364C165.823 143.364 163.927 144.108 162.559 145.596C161.191 147.084 160.507 149.232 160.507 152.04V152.076C161.251 151.212 162.199 150.564 163.351 150.132C164.503 149.676 165.799 149.448 167.239 149.448ZM166.447 161.688C167.911 161.688 169.099 161.304 170.011 160.536C170.923 159.744 171.379 158.7 171.379 157.404C171.379 156.084 170.923 155.04 170.011 154.272C169.099 153.504 167.875 153.12 166.339 153.12C164.827 153.12 163.591 153.528 162.631 154.344C161.695 155.16 161.227 156.192 161.227 157.44C161.227 158.664 161.683 159.684 162.595 160.5C163.531 161.292 164.815 161.688 166.447 161.688ZM197.194 139.8V142.932L187.402 165H182.398L191.866 143.76H181.966V148.044H177.61V139.8H197.194Z" fill="#E31E24"/>
</svg>
