<svg width="205" height="202" viewBox="0 0 205 202" fill="none" xmlns="http://www.w3.org/2000/svg">
<circle cx="95" cy="95" r="95" fill="#E31E24"/>
<circle cx="155" cy="152" r="50" fill="white"/>
<path d="M152.733 27H50.7333C49.4815 27 48.4666 28.0149 48.4666 29.2667V63.2666H52.9999V31.5333H150.466V156.2C150.488 157.392 149.569 158.39 148.379 158.466C148.184 158.466 147.989 158.451 147.794 158.446C147.393 158.435 146.992 158.426 146.597 158.385C146.563 158.385 146.531 158.385 146.497 158.371C139.095 157.562 133.247 151.72 132.431 144.318C132.431 144.286 132.419 144.252 132.415 144.22C132.36 143.682 132.333 143.141 132.333 142.6V138.066C132.333 136.815 131.318 135.8 130.066 135.8H52.9999V94.9999H48.4666V135.8H30.3333C29.0815 135.8 28.0667 136.815 28.0667 138.066V142.6C28.0791 153.861 37.2053 162.987 48.4666 163H148.426C152.105 162.903 155.028 159.879 155 156.2V29.2667C155 28.0149 153.985 27 152.733 27ZM48.4666 158.466C39.7079 158.456 32.6099 151.358 32.6 142.6V140.333H127.8V142.6C127.803 143.347 127.846 144.094 127.929 144.837C127.949 145.034 127.988 145.225 128.015 145.419C128.09 145.968 128.181 146.514 128.301 147.051C128.342 147.24 128.394 147.425 128.441 147.614C128.58 148.16 128.736 148.697 128.917 149.227C128.969 149.379 129.024 149.529 129.08 149.681C129.287 150.243 129.52 150.791 129.776 151.333C129.831 151.444 129.881 151.56 129.935 151.662C130.219 152.236 130.531 152.794 130.871 153.337C130.916 153.409 130.957 153.484 131.003 153.564C131.372 154.142 131.771 154.702 132.197 155.241L132.27 155.338C132.764 155.96 133.294 156.552 133.856 157.113C134.344 157.597 134.851 158.05 135.375 158.473L48.4666 158.466Z" fill="white"/>
<path d="M93.7998 90.4666C94.4011 90.4666 94.9774 90.2275 95.4024 89.8025L104.469 80.7358C105.354 79.8507 105.354 78.4159 104.469 77.5308L95.4024 68.4641C94.9774 68.0391 94.4011 67.8 93.7998 67.8H30.3333C24.0742 67.8 19 72.8742 19 79.1333C19 85.3924 24.0742 90.4666 30.3333 90.4666H93.7998ZM93.215 72.6869L99.6614 79.1333L93.215 85.5797L91.6034 79.1333L93.215 72.6869ZM37.1333 72.3333H88.6319L87.4985 76.8666H41.6666V81.4H87.4985L88.6319 85.9333H37.1333V72.3333ZM23.5333 79.1333C23.5333 75.3777 26.5777 72.3333 30.3333 72.3333H32.6V85.9333H30.3333C26.5777 85.9333 23.5333 82.8889 23.5333 79.1333Z" fill="white"/>
<path d="M71.1333 124.466H139.133C140.385 124.466 141.4 123.452 141.4 122.2V54.2C141.399 52.9482 140.385 51.9336 139.133 51.9339C138.532 51.9339 137.956 52.1727 137.531 52.5975L69.5307 120.597C68.6456 121.483 68.6459 122.918 69.5313 123.803C69.9563 124.228 70.5323 124.466 71.1333 124.466ZM136.866 59.6717V65.5333H132.333V70.0666H136.866V74.5999H132.333V79.1333H136.866V83.6666H132.333V88.1999H136.866V92.7332H132.333V97.2666H136.866V101.8H132.333V106.333H136.866V110.867H132.333V115.4H136.866V119.933H132.333V115.4H127.8V119.933H123.266V115.4H118.733V119.933H114.2V115.4H109.667V119.933H105.133V115.4H100.6V119.933H96.0665V115.4H91.5332V119.933H86.9999V115.4H82.4666V119.933H76.605L136.866 59.6717Z" fill="white"/>
<path d="M103.966 110.866H125.533C126.785 110.866 127.8 109.852 127.8 108.6V87.0325C127.8 85.7807 126.785 84.7661 125.533 84.7664C124.932 84.7664 124.356 85.0053 123.931 85.43L102.363 106.997C101.478 107.883 101.479 109.318 102.364 110.203C102.789 110.628 103.365 110.866 103.966 110.866ZM123.267 92.5065V106.333H109.44L123.267 92.5065Z" fill="white"/>
<path d="M123.266 40.6H77.9332V45.1334H123.266V40.6Z" fill="white"/>
<path d="M130.066 49.6667H71.1332V54.2001H130.066V49.6667Z" fill="white"/>
<path d="M71.1332 97.2665H57.5333V101.8H71.1332V97.2665Z" fill="white"/>
<path d="M66.5999 106.333H57.5333V110.867H66.5999V106.333Z" fill="white"/>
<path d="M137.487 139.8V165H132.807V143.724H127.479V139.8H137.487ZM160.738 161.04V165H142.162V161.868L152.17 152.364C153.298 151.284 154.054 150.348 154.438 149.556C154.846 148.74 155.05 147.936 155.05 147.144C155.05 145.968 154.654 145.068 153.862 144.444C153.07 143.82 151.906 143.508 150.37 143.508C147.802 143.508 145.834 144.384 144.466 146.136L141.19 143.616C142.174 142.296 143.494 141.276 145.15 140.556C146.83 139.812 148.702 139.44 150.766 139.44C153.502 139.44 155.686 140.088 157.318 141.384C158.95 142.68 159.766 144.444 159.766 146.676C159.766 148.044 159.478 149.328 158.902 150.528C158.326 151.728 157.222 153.096 155.59 154.632L148.858 161.04H160.738ZM174.167 150.204C176.495 150.492 178.271 151.284 179.495 152.58C180.719 153.876 181.331 155.496 181.331 157.44C181.331 158.904 180.959 160.236 180.215 161.436C179.471 162.636 178.343 163.596 176.831 164.316C175.343 165.012 173.519 165.36 171.359 165.36C169.559 165.36 167.819 165.108 166.139 164.604C164.483 164.076 163.067 163.356 161.891 162.444L163.907 158.808C164.819 159.576 165.923 160.188 167.219 160.644C168.539 161.076 169.895 161.292 171.287 161.292C172.943 161.292 174.239 160.956 175.175 160.284C176.135 159.588 176.615 158.652 176.615 157.476C176.615 156.3 176.159 155.388 175.247 154.74C174.359 154.068 172.991 153.732 171.143 153.732H168.839V150.528L174.563 143.724H163.115V139.8H180.287V142.932L174.167 150.204Z" fill="#E31E24"/>
</svg>
