<svg width="210" height="206" viewBox="0 0 210 206" fill="none" xmlns="http://www.w3.org/2000/svg">
<circle cx="95" cy="95" r="95" fill="#E31E24"/>
<circle cx="160" cy="156" r="50" fill="white"/>
<path d="M155.401 151.752C156.721 152.352 157.729 153.168 158.425 154.2C159.145 155.208 159.505 156.396 159.505 157.764C159.505 159.3 159.073 160.644 158.209 161.796C157.369 162.948 156.169 163.836 154.609 164.46C153.049 165.06 151.237 165.36 149.173 165.36C147.109 165.36 145.297 165.06 143.737 164.46C142.201 163.836 141.013 162.948 140.173 161.796C139.333 160.644 138.913 159.3 138.913 157.764C138.913 156.396 139.261 155.208 139.957 154.2C140.653 153.168 141.649 152.352 142.945 151.752C141.937 151.2 141.157 150.48 140.605 149.592C140.077 148.68 139.813 147.636 139.813 146.46C139.813 145.044 140.197 143.808 140.965 142.752C141.757 141.696 142.861 140.88 144.277 140.304C145.693 139.728 147.325 139.44 149.173 139.44C151.045 139.44 152.689 139.728 154.105 140.304C155.521 140.88 156.625 141.696 157.417 142.752C158.209 143.808 158.605 145.044 158.605 146.46C158.605 147.636 158.329 148.668 157.777 149.556C157.225 150.444 156.433 151.176 155.401 151.752ZM149.173 143.112C147.709 143.112 146.545 143.424 145.681 144.048C144.841 144.672 144.421 145.548 144.421 146.676C144.421 147.756 144.841 148.62 145.681 149.268C146.545 149.892 147.709 150.204 149.173 150.204C150.661 150.204 151.837 149.892 152.701 149.268C153.565 148.62 153.997 147.756 153.997 146.676C153.997 145.548 153.553 144.672 152.665 144.048C151.801 143.424 150.637 143.112 149.173 143.112ZM149.173 161.688C150.901 161.688 152.269 161.328 153.277 160.608C154.285 159.888 154.789 158.892 154.789 157.62C154.789 156.372 154.285 155.388 153.277 154.668C152.269 153.948 150.901 153.588 149.173 153.588C147.445 153.588 146.089 153.948 145.105 154.668C144.121 155.388 143.629 156.372 143.629 157.62C143.629 158.892 144.121 159.888 145.105 160.608C146.089 161.328 147.445 161.688 149.173 161.688ZM171.037 139.44C174.493 139.44 177.169 140.52 179.065 142.68C180.985 144.84 181.945 147.936 181.945 151.968C181.945 154.8 181.429 157.224 180.397 159.24C179.365 161.232 177.913 162.756 176.041 163.812C174.193 164.844 172.045 165.36 169.597 165.36C168.301 165.36 167.077 165.228 165.925 164.964C164.797 164.676 163.813 164.268 162.973 163.74L164.701 160.212C165.949 161.028 167.545 161.436 169.489 161.436C171.913 161.436 173.809 160.692 175.177 159.204C176.545 157.716 177.229 155.568 177.229 152.76V152.724C176.485 153.588 175.537 154.248 174.385 154.704C173.233 155.136 171.937 155.352 170.497 155.352C168.841 155.352 167.353 155.04 166.033 154.416C164.713 153.768 163.681 152.856 162.937 151.68C162.193 150.504 161.821 149.148 161.821 147.612C161.821 145.98 162.229 144.552 163.045 143.328C163.861 142.08 164.965 141.12 166.357 140.448C167.749 139.776 169.309 139.44 171.037 139.44ZM171.397 151.68C172.909 151.68 174.133 151.272 175.069 150.456C176.029 149.64 176.509 148.608 176.509 147.36C176.509 146.136 176.041 145.128 175.105 144.336C174.193 143.52 172.921 143.112 171.289 143.112C169.825 143.112 168.637 143.508 167.725 144.3C166.813 145.068 166.357 146.1 166.357 147.396C166.357 148.716 166.813 149.76 167.725 150.528C168.637 151.296 169.861 151.68 171.397 151.68Z" fill="#E31E24"/>
<path d="M112.6 100.594V122.299C112.6 123.401 113.494 124.295 114.596 124.295C115.699 124.295 116.592 123.401 116.592 122.299V99.1514C116.592 98.2682 116.012 97.4897 115.165 97.2381C110.645 95.8935 106.578 93.071 103.714 89.2895C100.756 85.3838 99.1925 80.7215 99.1925 75.8075C99.1925 63.4798 109.222 53.4506 121.549 53.4506C123.852 53.4506 126.106 53.8012 128.246 54.4711C127.644 56.7701 126.697 58.948 125.456 60.9396C124.314 60.3999 123.039 60.0965 121.695 60.0965C116.827 60.0965 112.866 64.0573 112.866 68.9259C112.866 73.7943 116.826 77.755 121.695 77.755C126.564 77.755 130.525 73.7943 130.525 68.9259C130.525 66.8514 129.804 64.9434 128.602 63.4347C130.075 61.1551 131.21 58.6571 131.959 56.0165C134.568 57.3901 136.912 59.2845 138.84 61.6335C139.539 62.4856 140.797 62.6091 141.649 61.9097C142.501 61.2103 142.625 59.9526 141.926 59.1002C139.402 56.0258 136.275 53.6095 132.785 51.9647C132.929 50.8249 133.007 49.6686 133.007 48.4988C133.007 33.3362 120.671 21 105.507 21C90.3442 21 78.0083 33.3362 78.0083 48.4991C78.0083 52.6258 78.9452 56.7178 80.7209 60.4132C75.1499 68.6749 74.6569 79.5778 79.7301 88.3442L61.4142 106.66C60.6346 107.44 60.6346 108.704 61.4142 109.483C62.1938 110.263 63.4577 110.263 64.2373 109.483L83.6723 90.0484C84.3448 89.3759 84.4495 88.3221 83.9222 87.5306C78.0484 78.7086 79.2337 66.8575 86.7402 59.3512C92.2708 53.8206 100.267 51.6614 107.695 53.4047C105.064 55.038 102.739 57.1205 100.831 59.5462C97.2842 59.9348 93.9785 61.5113 91.4394 64.0501C85.3136 70.176 85.3136 80.1433 91.4394 86.2694C93.7325 88.5623 96.5925 90.0511 99.7561 90.6153C100.006 90.9816 100.262 91.3447 100.532 91.7006C102.133 93.8147 104.057 95.6717 106.203 97.2121C100.665 98.1277 94.9167 96.9422 90.1761 93.7855C89.3843 93.2585 88.3305 93.3626 87.6582 94.0352L69.3641 112.329C68.5845 113.109 68.5845 114.373 69.3641 115.152L73.6882 119.477C74.7818 120.526 74.7818 122.414 73.6879 123.463C72.6387 124.556 70.7507 124.557 69.7017 123.463L65.3776 119.139C64.598 118.359 63.3341 118.359 62.5545 119.139L57.3759 124.317C56.6027 125.061 56.6027 126.397 57.3759 127.141L61.6997 131.464C62.7989 132.563 62.7989 134.352 61.7 135.451C60.6009 136.55 58.8127 136.55 57.7138 135.451L53.3897 131.126C52.6101 130.347 51.3462 130.347 50.5666 131.126L44.9027 136.79C43.8035 137.889 42.0153 137.889 40.9165 136.79C39.8173 135.691 39.8173 133.903 40.9165 132.804L58.5911 115.129C59.3708 114.349 59.3708 113.086 58.5911 112.306C57.8115 111.527 56.5477 111.527 55.7681 112.306L38.0931 129.981C35.4377 132.636 35.4377 136.958 38.0931 139.614C40.7488 142.269 45.0698 142.269 47.7255 139.614L51.9779 135.361L54.8907 138.274C57.5462 140.929 61.8674 140.929 64.5231 138.274C67.1785 135.618 67.1785 131.297 64.5231 128.641L61.6105 125.729L63.9661 123.373L66.8786 126.286C69.414 128.928 73.9759 128.928 76.5113 126.286C79.1534 123.751 79.1537 119.188 76.5113 116.653L73.5987 113.741L89.3625 97.9768C95.9646 101.796 103.964 102.563 111.214 100.042C111.671 100.238 112.132 100.425 112.6 100.594ZM121.695 64.0889C122.131 64.0889 122.551 64.1521 122.953 64.2605C121.228 66.1701 119.18 67.8061 116.866 69.0824C116.864 69.0298 116.858 68.9785 116.858 68.9257C116.858 66.2588 119.028 64.0889 121.695 64.0889ZM126.532 68.9262C126.532 71.5931 124.362 73.763 121.695 73.763C120.534 73.763 119.467 73.351 118.632 72.6662C121.459 71.1317 123.955 69.1419 126.037 66.8065C126.35 67.4475 126.532 68.1652 126.532 68.9262ZM83.9172 56.5279C83.7926 56.6525 83.6744 56.7813 83.5527 56.908C82.533 54.2379 82.0004 51.3787 82.0004 48.4994C82.0004 35.5377 92.5455 24.9926 105.507 24.9926C118.469 24.9926 129.014 35.5377 129.014 48.4994C129.014 49.174 128.982 49.8432 128.925 50.507C126.558 49.819 124.079 49.4585 121.549 49.4585C118.517 49.4585 115.604 49.9749 112.89 50.9216C103.058 46.73 91.514 48.9307 83.9172 56.5279ZM97.7735 64.4565C96.9434 66.1879 96.2974 68.0233 95.8602 69.9374C94.8676 69.4901 93.9057 68.9772 92.9824 68.3944C93.3601 67.8608 93.7846 67.3505 94.2622 66.8729C95.2862 65.8489 96.4775 65.0348 97.7735 64.4565ZM94.2625 83.4458C91.1735 80.3568 90.1758 75.9586 91.2638 72.021C92.5409 72.7961 93.8768 73.4641 95.2623 74.0204C95.2224 74.6111 95.2004 75.2069 95.2004 75.8077C95.2004 79.1817 95.8304 82.4537 97.0425 85.5092C96.0305 84.9705 95.0963 84.2796 94.2625 83.4458Z" fill="white"/>
<path d="M146.24 66.5883C145.854 65.5553 144.704 65.0315 143.671 65.4172C142.639 65.8029 142.114 66.9528 142.5 67.9858C143.433 70.4829 143.906 73.1147 143.906 75.8076C143.906 85.5133 137.711 94.0558 128.49 97.0645C127.669 97.3325 127.113 98.0983 127.113 98.9621V110.046L121.459 114.431C120.439 115.18 120.439 116.837 121.459 117.586L125.852 120.993L121.459 124.401C120.439 125.15 120.439 126.806 121.459 127.555L125.852 130.962L121.459 134.37C120.439 135.119 120.439 136.775 121.459 137.524L127.113 141.91V146.7L121.62 152.142L116.593 146.747V130.283C116.593 129.181 115.699 128.287 114.596 128.287C113.494 128.287 112.6 129.181 112.6 130.283V147.533C112.6 148.038 112.792 148.524 113.136 148.894L120.103 156.37C120.833 157.186 122.205 157.214 122.968 156.427L130.515 148.951C130.893 148.576 131.106 148.065 131.106 147.533V140.932C131.106 140.315 130.821 139.733 130.333 139.355L125.94 135.947L130.333 132.54C131.353 131.791 131.353 130.135 130.333 129.385L125.94 125.978L130.333 122.571C131.353 121.822 131.353 120.165 130.333 119.416L125.94 116.009L130.333 112.602C130.821 112.223 131.106 111.641 131.106 111.024V100.369C141.209 96.4485 147.899 86.7562 147.899 75.8076C147.898 72.6361 147.34 69.5341 146.24 66.5883Z" fill="white"/>
</svg>
